<?xml version="1.0" encoding="utf-8"?>
<!-- Generator: Adobe Illustrator 12.0.0, SVG Export Plug-In . SVG Version: 6.00 Build 51448)  -->
<!DOCTYPE svg PUBLIC "-//W3C//DTD SVG 1.1//EN" "http://www.w3.org/Graphics/SVG/1.1/DTD/svg11.dtd" [
	<!ENTITY ns_svg "http://www.w3.org/2000/svg">
	<!ENTITY ns_xlink "http://www.w3.org/1999/xlink">
]>
<svg  version="1.1" xmlns="&ns_svg;" xmlns:xlink="&ns_xlink;" width="395.271" height="53.331" viewBox="0 0 395.271 53.331"
	 overflow="visible" enable-background="new 0 0 395.271 53.331" xml:space="preserve">
<g id="Layer_1">
	<g>
		<path fill="#646567" d="M82.809,40.376v-7.846H72.366c-2.916,0-4.612-1.431-4.612-3.923c0-1.166,0.371-2.12,1.219-3.339
			l14.101-20.25h5.354v22.052h2.916v5.46h-2.916v7.846H82.809z M82.809,14.295l-8.853,12.775h8.853V14.295z"/>
		<path fill="#646567" d="M93.888,31.206c0-4.559,0.371-6.361,1.802-8.588c2.015-3.18,5.832-5.194,9.701-5.194
			c6.414,0,11.715,5.301,11.715,11.662c0,6.308-5.248,11.609-11.397,11.609c-2.385,0-4.559-0.796-6.626-2.386v14.736h-5.195V31.206z
			 M98.924,29.033c0,3.816,2.704,6.573,6.414,6.573c3.711,0,6.573-2.81,6.573-6.521c0-3.658-2.916-6.573-6.573-6.573
			C101.786,22.512,98.924,25.427,98.924,29.033z"/>
		<path fill="#646567" d="M121.293,40.376V27.071c0-6.149,3.181-9.542,8.906-9.542c0.265,0,0.742,0,1.272,0.053v5.036
			c-3.923,0.266-4.983,1.484-4.983,5.831v11.928H121.293z"/>
		<path fill="#646567" d="M156.81,29.35c0,6.202-5.354,11.345-11.821,11.345c-6.414,0-11.662-5.195-11.662-11.557
			c0-6.521,5.248-11.715,11.769-11.715C151.615,17.423,156.81,22.724,156.81,29.35z M138.522,29.085c0,3.604,2.916,6.521,6.52,6.521
			s6.573-2.969,6.573-6.468c0-3.657-2.916-6.626-6.52-6.626C141.49,22.512,138.522,25.427,138.522,29.085z"/>
		<path fill="#646567" d="M166.616,42.391c0.212,3.498,2.385,5.831,5.46,5.831c1.908,0,3.87-1.113,4.771-2.704
			c0.583-1.007,0.848-2.491,0.848-4.771v-2.279c-1.961,1.537-3.976,2.227-6.467,2.227c-6.361,0-11.609-5.302-11.609-11.662
			c0-6.361,5.301-11.609,11.769-11.609c3.71,0,7.262,1.908,9.436,5.089c1.431,2.067,2.067,4.718,2.067,8.322v10.231
			c0,3.869-0.583,5.937-2.227,8.11c-1.961,2.544-5.142,4.082-8.481,4.082c-6.096,0-10.655-4.665-10.655-10.867H166.616z
			 M164.814,28.979c0,3.764,2.809,6.627,6.52,6.627c3.604,0,6.52-2.863,6.52-6.309c0-3.816-2.862-6.785-6.467-6.785
			C167.623,22.512,164.814,25.269,164.814,28.979z"/>
		<path fill="#646567" d="M188.19,40.376V27.071c0-6.149,3.181-9.542,8.906-9.542c0.266,0,0.742,0,1.272,0.053v5.036
			c-3.923,0.266-4.983,1.484-4.983,5.831v11.928H188.19z"/>
		<path fill="#646567" d="M218.247,40.376v-2.067c-2.067,1.59-4.241,2.386-6.627,2.386c-6.148,0-11.396-5.302-11.396-11.609
			c0-6.361,5.301-11.662,11.715-11.662c3.87,0,7.687,2.014,9.701,5.194c1.431,2.227,1.802,4.029,1.802,8.588v9.171H218.247z
			 M205.418,29.085c0,3.657,2.863,6.521,6.573,6.521c3.604,0,6.468-2.757,6.468-6.361c0-3.817-2.757-6.732-6.414-6.732
			C208.334,22.512,205.418,25.375,205.418,29.085z"/>
		<path fill="#646567" d="M250.848,40.376V26.647c0-2.703-1.008-4.135-2.916-4.135c-2.014,0-3.074,1.432-3.074,4.028v13.836h-5.195
			V26.647c0-2.862-0.954-4.135-3.021-4.135c-1.961,0-2.969,1.325-2.969,3.869v13.995h-5.194V26.912c0-3.074,0.265-4.294,1.271-5.884
			c1.432-2.279,3.923-3.604,6.786-3.604c2.279,0,4.028,0.689,5.672,2.173c1.325-1.378,3.34-2.173,5.672-2.173
			c2.81,0,5.301,1.272,6.785,3.445c1.007,1.537,1.378,3.021,1.378,5.938v13.57H250.848z"/>
		<path fill="#646567" d="M283.926,40.376V26.647c0-2.703-1.008-4.135-2.916-4.135c-2.014,0-3.074,1.432-3.074,4.028v13.836h-5.195
			V26.647c0-2.862-0.954-4.135-3.021-4.135c-1.961,0-2.969,1.325-2.969,3.869v13.995h-5.194V26.912c0-3.074,0.265-4.294,1.271-5.884
			c1.432-2.279,3.923-3.604,6.786-3.604c2.279,0,4.028,0.689,5.672,2.173c1.325-1.378,3.34-2.173,5.672-2.173
			c2.81,0,5.301,1.272,6.785,3.445c1.007,1.537,1.378,3.021,1.378,5.938v13.57H283.926z"/>
		<path fill="#646567" d="M315.731,33.061c-1.644,4.612-5.938,7.634-10.814,7.634c-6.308,0-11.608-5.354-11.608-11.662
			c0-6.415,5.194-11.609,11.556-11.609c3.287,0,6.202,1.272,8.429,3.604c1.696,1.803,2.81,4.241,2.81,6.149
			c0,1.325-0.53,2.438-1.484,3.181c-1.007,0.742-1.696,0.9-4.241,0.9h-11.556c0.954,2.651,3.34,4.348,6.202,4.348
			c2.12,0,3.816-0.849,5.195-2.545H315.731z M311.014,26.647c-0.849-2.491-3.233-4.135-5.99-4.135s-5.036,1.537-6.096,4.135H311.014
			z"/>
		<path fill="#646567" d="M320.237,40.376V27.071c0-6.149,3.181-9.542,8.905-9.542c0.266,0,0.742,0,1.272,0.053v5.036
			c-3.923,0.266-4.983,1.484-4.983,5.831v11.928H320.237z"/>
		<path fill="#646567" d="M347.325,23.519c-1.749-1.06-3.816-1.644-5.672-1.644c-2.12,0-3.445,0.901-3.445,2.386
			c0,0.689,0.371,1.166,1.113,1.484s0.742,0.318,3.552,1.113c1.961,0.583,3.074,1.113,3.869,1.908
			c1.22,1.113,1.908,2.81,1.908,4.612c0,4.452-3.445,7.475-8.481,7.475c-2.279,0-4.294-0.425-6.732-1.326v-5.301
			c2.704,1.272,5.036,1.908,6.839,1.908c2.12,0,3.339-0.848,3.339-2.279c0-1.325-0.583-1.749-3.816-2.65
			c-4.611-1.272-6.626-3.286-6.626-6.732c0-4.188,3.445-7.209,8.217-7.209c1.961,0,3.552,0.265,5.937,1.06V23.519z"/>
		<path fill="#878889" d="M356.247,38.614c0,1.082-0.896,1.979-2.041,1.979c-1.113,0-2.01-0.897-2.01-2.041
			c0-1.082,0.928-2.01,2.01-2.01C355.382,36.542,356.247,37.408,356.247,38.614z"/>
		<path fill="#878889" d="M367.596,40.376v-6.401c0-1.515-0.124-2.257-0.495-2.906s-1.206-1.113-2.01-1.113
			c-0.835,0-1.67,0.433-2.072,1.082c-0.371,0.619-0.494,1.237-0.494,2.722v6.617h-3.03v-7.483c0-1.67,0.371-2.813,1.236-3.865
			c1.021-1.299,2.629-2.041,4.329-2.041c1.701,0,3.278,0.712,4.329,1.979c0.928,1.113,1.237,2.134,1.237,4.144v7.267H367.596z"/>
		<path fill="#878889" d="M386.148,36.109c-0.959,2.69-3.463,4.453-6.309,4.453c-3.68,0-6.771-3.123-6.771-6.803
			c0-3.742,3.03-6.772,6.741-6.772c1.917,0,3.618,0.742,4.916,2.103c0.99,1.052,1.64,2.475,1.64,3.588
			c0,0.772-0.31,1.422-0.866,1.854c-0.588,0.434-0.989,0.526-2.474,0.526h-6.741c0.557,1.546,1.948,2.535,3.618,2.535
			c1.236,0,2.227-0.494,3.03-1.484H386.148z M383.396,32.368c-0.495-1.453-1.887-2.412-3.494-2.412
			c-1.608,0-2.938,0.896-3.557,2.412H383.396z"/>
		<path fill="#878889" d="M394.776,40.376c-1.887,0-3.309-0.588-4.268-1.763c-0.742-0.958-1.051-2.071-1.051-3.989V30.08H387.2
			v-2.907h2.258v-4.638h3.03v4.638h2.782v2.907h-2.782v4.607c0,2.041,0.618,2.721,2.566,2.752h0.216v2.938H394.776z"/>
	</g>
	<g>
		<g>
			<path fill="#97BE0D" d="M37.168,40.072c0,1.229-0.378,2.077-1.133,2.541c-0.524,0.333-1.295,0.5-2.314,0.5H32.64
				c-1.706,0-2.872-0.167-3.495-0.499c-0.789-0.433-1.182-1.28-1.182-2.542v-3.289c0-0.365-0.176-0.705-0.527-1.02
				c-0.351-0.316-0.677-0.474-0.978-0.474H15.417c-1.237,0-2.091-0.399-2.56-1.199c-0.301-0.53-0.451-1.328-0.451-2.392V30.75
				c0-1.728,0.19-2.934,0.574-3.615c0.382-0.681,1.187-1.022,2.416-1.022h3.19c0.598,0,1.021-0.157,1.271-0.47
				c0.249-0.316,0.374-0.689,0.374-1.121v-3.187c0-1.095,0.303-1.866,0.909-2.314c0.607-0.448,1.315-0.673,2.124-0.673h3.337
				c0.506,0,0.859-0.157,1.061-0.472s0.304-0.656,0.304-1.02V13.57c0-1.26,0.414-2.106,1.243-2.538
				c0.563-0.297,1.427-0.447,2.587-0.447h0.896c2.189,0,3.516,0.298,3.98,0.895c0.331,0.432,0.498,1.645,0.498,3.637
				c0,1.761-0.151,2.939-0.454,3.537c-0.404,0.796-1.229,1.195-2.473,1.195h-3.483c-0.539,0-0.909,0.208-1.111,0.621
				c-0.202,0.414-0.303,0.903-0.303,1.467v0.894c0,1.227,0.092,2.08,0.274,2.562c0.183,0.48,0.639,0.719,1.371,0.719h3.19
				c0.995,0,1.743,0.283,2.241,0.85c0.499,0.563,0.748,1.277,0.748,2.143V40.072z"/>
		</g>
		<path fill="#878889" d="M28.688,0c-2.64,0-5.188,0.391-7.595,1.103c0.074,0,0.147-0.004,0.223-0.004
			c14.12,0,25.567,11.446,25.567,25.567c0,14.118-11.447,25.567-25.567,25.567c-0.074,0-0.147-0.006-0.222-0.006
			c2.407,0.714,4.955,1.104,7.594,1.104c14.726,0,26.665-11.938,26.665-26.666C55.353,11.938,43.415,0,28.688,0z"/>
		<path fill="#A7A8AA" d="M22.977,49.641c2.274,0,4.47-0.336,6.543-0.95c-0.063,0-0.127,0.004-0.192,0.004
			c-12.167,0-22.03-9.863-22.03-22.03c0-12.165,9.863-22.03,22.03-22.03c0.064,0,0.127,0.004,0.192,0.004
			c-2.076-0.616-4.271-0.952-6.543-0.952C10.287,3.688,0,13.976,0,26.665C0,39.354,10.287,49.641,22.977,49.641z"/>
	</g>
</g>
<g id="Layer_2">
</g>
</svg>
