<svg xmlns="http://www.w3.org/2000/svg" width="114" height="19" viewBox="0 0 114 19" fill="none">
    <path d="M25.162 14.2078H23.7942V12.467H20.2849C19.4559 12.467 19 12.0249 19 11.4446C19 11.1406 19.1105 10.7952 19.3592 10.4636L22.8409 5.57268C23.1725 5.11675 23.5041 4.78516 24.1534 4.78516C24.7337 4.78516 25.162 5.18583 25.162 5.82137V11.265H26.6542V12.467H25.162V14.2078ZM20.4783 11.265H23.7942V6.6089C23.7942 6.526 23.7666 6.45692 23.6699 6.45692C23.5732 6.45692 23.5317 6.53982 23.435 6.66416L20.3678 11.0439C20.3264 11.0992 20.3125 11.1406 20.3125 11.1821C20.3125 11.265 20.3954 11.265 20.4783 11.265Z" fill="black"/>
    <path d="M29.207 17.3165H27.8392V10.809C27.8392 8.79186 29.4004 7.27208 31.4452 7.27208C33.49 7.27208 35.0374 8.87476 35.0374 10.809C35.0374 12.8538 33.5591 14.3736 31.5005 14.3736C30.5886 14.3736 29.7597 13.9729 29.207 13.365V17.3165ZM31.4452 13.0887C32.7025 13.0887 33.6696 12.0525 33.6696 10.8228C33.6696 9.57939 32.7025 8.5708 31.4452 8.5708C30.1742 8.5708 29.207 9.57939 29.207 10.8228C29.207 12.0525 30.1742 13.0887 31.4452 13.0887Z" fill="black"/>
    <path d="M37.9501 14.2078H36.5823V10.1735C36.5823 8.52935 37.5218 7.29971 39.2902 7.29971C39.7185 7.29971 40.1607 7.38261 40.5061 7.5484V8.90239C40.1745 8.70896 39.7876 8.61225 39.4146 8.61225C38.5027 8.61225 37.9501 9.23398 37.9501 10.2287V14.2078Z" fill="black"/>
    <path d="M44.6985 14.3736C42.6537 14.3736 41.0787 12.7709 41.0787 10.809C41.0787 8.86094 42.6675 7.27208 44.6985 7.27208C46.7433 7.27208 48.2907 8.87476 48.2907 10.809C48.2907 12.7709 46.7295 14.3736 44.6985 14.3736ZM44.6985 13.0749C45.9558 13.0749 46.9229 12.0525 46.9229 10.8228C46.9229 9.57939 45.9558 8.55699 44.6985 8.55699C43.4274 8.55699 42.4465 9.57939 42.4465 10.8228C42.4465 12.0525 43.4274 13.0749 44.6985 13.0749Z" fill="black"/>
    <path d="M52.8716 17.4823C51.4071 17.4823 50.1913 16.8467 49.5696 15.6447L50.7163 15.023C51.117 15.7552 51.8631 16.225 52.844 16.225C54.2671 16.225 55.2342 15.2026 55.2342 13.6137V13.0749C54.7921 13.7795 53.9631 14.3045 52.8302 14.3045C50.9097 14.3045 49.39 12.7847 49.39 10.7952C49.39 8.86094 50.9374 7.27208 52.996 7.27208C55.0408 7.27208 56.602 8.79186 56.602 10.809V13.5999C56.602 15.9487 55.027 17.4823 52.8716 17.4823ZM52.9822 13.0196C54.2256 13.0196 55.2204 12.0249 55.2204 10.7814C55.2204 9.53794 54.2256 8.5708 52.9822 8.5708C51.7525 8.5708 50.7439 9.53794 50.7439 10.7814C50.7439 12.0249 51.7525 13.0196 52.9822 13.0196Z" fill="black"/>
    <path d="M59.9291 14.2078H58.5613V10.1735C58.5613 8.52935 59.5008 7.29971 61.2693 7.29971C61.6976 7.29971 62.1397 7.38261 62.4851 7.5484V8.90239C62.1535 8.70896 61.7667 8.61225 61.3936 8.61225C60.4818 8.61225 59.9291 9.23398 59.9291 10.2287V14.2078Z" fill="black"/>
    <path d="M66.4565 14.3736C64.4946 14.3736 63.0577 12.7709 63.0577 10.809C63.0577 8.87476 64.6051 7.27208 66.6637 7.27208C68.7085 7.27208 70.2698 8.79186 70.2698 10.809V14.2078H68.971V13.0196C68.4598 13.8486 67.5618 14.3736 66.4565 14.3736ZM66.6637 13.0749C67.9348 13.0749 68.902 12.0525 68.902 10.8228C68.902 9.57939 67.9348 8.55699 66.6637 8.55699C65.4065 8.55699 64.4255 9.57939 64.4255 10.8228C64.4255 12.0525 65.4065 13.0749 66.6637 13.0749Z" fill="black"/>
    <path d="M99.1127 14.3598C97.0541 14.3598 95.5205 12.8676 95.5205 10.7814C95.5205 8.83331 96.916 7.24444 98.9469 7.24444C100.992 7.24444 102.263 8.72278 102.263 10.6156V11.1683H96.8469C96.9989 12.3288 97.8831 13.144 99.0989 13.144C99.9279 13.144 100.674 12.7848 101.075 12.0387L102.125 12.5775C101.531 13.7381 100.439 14.3598 99.1127 14.3598ZM96.9021 10.284H100.895C100.84 9.20635 100.052 8.47409 98.9331 8.47409C97.7864 8.47409 97.0403 9.27543 96.9021 10.284Z" fill="black"/>
    <path d="M105.264 14.2078H103.896V10.1735C103.896 8.52935 104.835 7.29971 106.604 7.29971C107.032 7.29971 107.474 7.38261 107.82 7.5484V8.90239C107.488 8.70896 107.101 8.61225 106.728 8.61225C105.816 8.61225 105.264 9.23398 105.264 10.2287V14.2078Z" fill="black"/>
    <path d="M111.32 14.3598C110.062 14.3598 109.095 13.8624 108.57 12.8538L109.62 12.2736C109.966 12.9505 110.518 13.1992 111.264 13.1992C112.038 13.1992 112.632 12.8815 112.632 12.2874C112.632 10.8643 108.75 11.942 108.75 9.35833C108.75 8.17013 109.8 7.29971 111.278 7.29971C112.535 7.29971 113.392 7.87999 113.82 8.66751L112.77 9.26161C112.48 8.66752 111.928 8.46027 111.306 8.46027C110.67 8.46027 110.118 8.79186 110.118 9.33069C110.118 10.7123 114 9.70373 114 12.2597C114 13.5446 112.757 14.3598 111.32 14.3598Z" fill="black"/>
    <path d="M82.443 14.2078H83.7794H83.8108V10.8643C83.8108 9.63465 84.3773 8.55699 85.6483 8.55699C86.9056 8.55699 87.5273 9.5932 87.5273 10.8367V14.2078H88.8951V10.8367C88.8951 9.5932 89.5169 8.55699 90.7465 8.55699C92.0176 8.55699 92.6255 9.63465 92.6255 10.8643V14.2078H93.9933V10.6432C93.9933 8.76423 92.888 7.24444 90.8432 7.24444C89.5583 7.24444 88.605 7.93526 88.232 8.98529C87.8866 7.93526 86.9056 7.24444 85.5516 7.24444C84.4481 7.24444 83.4487 7.85593 83.1053 8.98529C82.7185 7.84312 81.7415 7.24444 80.6293 7.24444C79.3444 7.24444 78.3911 7.93526 78.018 8.98529C77.6726 7.93526 76.6917 7.24444 75.3377 7.24444C73.3067 7.24444 72.2291 8.76423 72.2291 10.6571V14.2078H73.5969V10.8643C73.5969 9.63465 74.1633 8.55699 75.4344 8.55699C76.6917 8.55699 77.3134 9.5932 77.3134 10.8367V14.2078H78.6812V10.8367C78.6812 9.5932 79.3029 8.55699 80.5326 8.55699C81.8037 8.55699 82.4116 9.63465 82.4116 10.8643V14.2078H82.443Z" fill="black"/>
    <path d="M12.4688 9.5H11.2813C10.2975 9.5 9.5 8.70251 9.5 7.71875V6.53125C9.5 5.54749 10.2975 4.75 11.2813 4.75H12.4688C13.4525 4.75 14.25 3.95251 14.25 2.96875V1.78125C14.25 0.797493 13.4525 0 12.4688 0H11.2813C10.2975 0 9.5 0.797493 9.5 1.78125V2.96875C9.5 3.95251 8.70251 4.75 7.71875 4.75H6.53125C5.54749 4.75 4.75 5.54749 4.75 6.53125V7.71875C4.75 8.70251 3.95251 9.5 2.96875 9.5H1.78125C0.797493 9.5 0 10.2975 0 11.2812V12.4688C0 13.4525 0.797493 14.25 1.78125 14.25H7.71875C8.70251 14.25 9.5 15.0475 9.5 16.0312V17.2188C9.5 18.2025 10.2975 19 11.2813 19H12.4688C13.4525 19 14.25 18.2025 14.25 17.2188V11.2812C14.25 10.2975 13.4525 9.5 12.4688 9.5Z" fill="#00A538"/>
</svg>
