<svg xmlns="http://www.w3.org/2000/svg" width="648" height="508" viewBox="0 0 648 508" fill="none">
    <path fill-rule="evenodd" clip-rule="evenodd" d="M1104.43 221.054C1079.75 206.808 1039.75 206.804 1015.09 221.045L984.942 238.45C959.66 253.046 918.662 253.042 893.371 238.441L863.215 221.03C838.54 206.784 798.541 206.78 773.875 221.021L743.729 238.426C718.447 253.022 677.449 253.018 652.158 238.417L622.001 221.006C599.43 207.974 564.035 206.86 539.285 217.666C537.485 219.043 535.499 220.364 533.327 221.618L503.18 239.024C501.08 240.236 498.871 241.348 496.571 242.359C478.042 256.643 480.03 276.991 502.531 289.982L532.688 307.393C557.363 321.639 597.361 321.643 622.027 307.402L652.174 289.997C677.456 275.4 718.453 275.404 743.744 290.006L773.901 307.417C798.576 321.663 838.574 321.667 863.24 307.426L893.387 290.021C918.669 275.424 959.667 275.428 984.958 290.03L1015.11 307.441C1039.79 321.687 1079.79 321.691 1104.45 307.45L1134.6 290.045C1159.27 275.804 1159.26 252.71 1134.58 238.465L1104.43 221.054ZM538.155 217.016C535.856 218.028 533.647 219.14 531.546 220.352L501.4 237.757C499.227 239.012 497.241 240.333 495.442 241.71C471.757 252.051 438.325 251.476 415.71 239.987C414.72 239.331 413.684 238.689 412.602 238.064L382.445 220.653C381.474 220.093 380.481 219.554 379.466 219.037C357.94 204.706 358.968 182.996 382.553 169.379L412.699 151.974C437.365 137.733 477.364 137.737 502.038 151.983L532.195 169.394C554.696 182.385 556.684 202.733 538.155 217.016ZM541.943 215.472C567.05 205.995 601.058 207.626 623.117 220.361L653.274 237.772C677.948 252.018 717.947 252.022 742.613 237.781L772.759 220.376C798.042 205.78 839.039 205.784 864.33 220.385L894.487 237.796C919.162 252.042 959.16 252.046 983.826 237.805L1013.97 220.4C1039.25 205.804 1080.25 205.808 1105.54 220.409L1135.7 237.82C1158.58 251.032 1160.77 271.668 1142.25 286.29C1167.57 275.599 1203.31 276.86 1226.2 290.071L1256.35 307.482C1281.64 322.084 1281.65 345.754 1256.37 360.351L1226.22 377.756C1212.57 385.64 1194.32 389.265 1176.45 388.63C1194.46 389.569 1213.04 386.06 1226.82 378.1L1256.97 360.695C1282.25 346.099 1323.25 346.103 1348.54 360.704L1378.7 378.115C1403.99 392.717 1404 416.387 1378.71 430.984L1348.57 448.389C1323.28 462.986 1282.29 462.982 1257 448.38L1226.84 430.969C1202.16 416.723 1162.17 416.719 1137.5 430.96L1107.35 448.365C1084.19 461.737 1047.84 462.856 1022.46 451.722C1037.98 464.497 1038.05 481.622 1022.67 494.43C1044.93 485.7 1074.53 485.864 1096.53 494.921C1081.57 480.553 1084.82 461.634 1106.27 449.248L1136.42 431.843C1161.7 417.247 1202.69 417.251 1227.99 431.852L1258.14 449.263C1283.43 463.865 1283.44 487.535 1258.16 502.132L1228.01 519.537C1205.33 532.635 1169.99 533.976 1144.69 523.564C1159.66 537.932 1156.41 556.851 1134.96 569.237L1104.81 586.642C1082.16 599.722 1046.88 601.078 1021.6 590.712C1038.77 605.264 1036.19 625.259 1013.84 638.163L983.69 655.568C958.408 670.164 917.41 670.16 892.119 655.559L861.962 638.148C839.998 625.466 837.104 605.945 853.284 591.468C828.169 600.979 794.111 599.358 772.028 586.609L741.872 569.198C719.59 556.334 716.933 536.431 733.904 521.895C708.763 531.524 674.535 529.939 652.371 517.142L622.214 499.731C599.104 486.389 597.105 465.475 616.22 450.831C593.54 460.651 562.232 460.752 539.365 451.134C557.813 465.756 555.616 486.354 532.771 499.543L502.625 516.948C477.343 531.545 436.345 531.541 411.054 516.939L380.897 499.528C358.467 486.578 355.924 466.496 373.272 451.936C348.053 461.952 313.269 460.483 290.839 447.533L260.682 430.122C237.322 416.636 235.533 395.413 255.317 380.748C229.918 392.171 193.159 391.137 169.799 377.651L139.642 360.24C117.309 347.345 114.692 327.379 131.795 312.835C106.603 322.71 72.0208 321.199 49.6868 308.304L19.53 290.893C-5.76097 276.291 -5.76807 252.622 19.5142 238.025L49.6606 220.62C74.3267 206.379 74.3199 183.286 49.6453 169.04L19.4884 151.629C-5.8025 137.027 -5.80954 113.357 19.4727 98.7602L49.6191 81.3552C72.0021 68.4324 106.703 66.9537 131.917 76.9168C114.562 62.3533 117.094 42.2722 139.515 29.3272L169.662 11.9222C194.944 -2.67455 235.942 -2.67047 261.233 11.9313L291.389 29.3423C316.68 43.9441 316.687 67.6141 291.405 82.2108L261.259 99.6158C236.593 113.857 236.6 136.95 261.274 151.196L291.431 168.607C314.333 181.829 316.502 202.487 297.935 217.111C320.433 207.396 351.393 207.231 374.189 216.616C356.451 202.03 358.866 181.766 381.437 168.735L411.583 151.33C436.865 136.733 477.863 136.737 503.154 151.339L533.311 168.75C555.297 181.444 558.175 200.99 541.943 215.472ZM378.344 219.68C353.527 207.073 315.684 207.608 291.99 221.288L261.844 238.693C257.89 240.976 253.552 242.901 248.951 244.47C224.056 253.147 191.222 251.28 169.729 238.871L139.573 221.46C114.282 206.858 114.275 183.188 139.557 168.592L169.703 151.187C194.369 136.946 194.363 113.853 169.688 99.6067L139.531 82.1957C138.046 81.3383 136.648 80.4496 135.337 79.5333C110.521 67.8164 73.8788 68.6376 50.7352 81.9996L20.5888 99.4046C-4.07731 113.646 -4.07044 136.739 20.6041 150.985L50.761 168.396C76.0519 182.997 76.059 206.667 50.7767 221.264L20.6302 238.669C-4.03583 252.91 -4.02891 276.003 20.6457 290.249L50.8025 307.66C73.8361 320.959 110.223 321.846 135.026 310.321C136.453 309.303 137.987 308.318 139.627 307.371L169.773 289.966C195.055 275.369 236.053 275.373 261.344 289.975L291.501 307.386C316.175 321.632 356.174 321.636 380.84 307.395L410.986 289.99C412.626 289.043 414.332 288.158 416.096 287.334C435.12 273.687 434.616 253.964 414.588 240.631C413.573 240.113 412.58 239.575 411.609 239.014L381.453 221.603C380.37 220.978 379.334 220.337 378.344 219.68ZM419.865 243.052C441.555 251.98 470.633 252.265 492.784 243.904C478.347 256.784 479.027 273.67 494.821 286.178C472.774 276.91 442.887 276.674 420.449 285.469C435.475 272.69 435.28 255.727 419.865 243.052ZM136.148 310.969C137.912 310.146 139.618 309.26 141.258 308.313L171.404 290.908C196.07 276.667 236.069 276.671 260.743 290.917L290.9 308.328C316.191 322.93 357.189 322.934 382.471 308.337L412.617 290.932C414.257 289.986 415.791 289 417.218 287.982C442.021 276.457 478.408 277.345 501.442 290.643L531.598 308.054C556.273 322.3 556.28 345.393 531.614 359.634L501.467 377.039C476.185 391.636 476.192 415.306 501.483 429.908L531.64 447.319C556.314 461.565 556.321 484.658 531.655 498.899L501.509 516.304C476.843 530.545 436.844 530.541 412.17 516.295L382.013 498.884C358.806 485.485 357.42 464.26 377.859 449.935C379.425 449.186 380.944 448.389 382.41 447.543L412.556 430.138C437.838 415.541 437.831 391.871 412.54 377.269L412.344 377.156C412.272 377.114 412.2 377.072 412.128 377.031L381.971 359.619C356.68 345.018 315.683 345.014 290.401 359.61L260.254 377.015C235.588 391.256 195.59 391.252 170.915 377.007L140.758 359.595C117.725 346.297 116.187 325.289 136.148 310.969ZM532.731 360.278C556.413 346.606 594.227 346.064 619.044 358.649C620.04 359.31 621.082 359.956 622.172 360.585L652.329 377.996C677.62 392.598 718.618 392.602 743.9 378.006L774.046 360.6C775.349 359.848 776.585 359.072 777.753 358.274C802.487 346.138 839.592 346.773 863.047 360.175C863.125 360.221 863.204 360.266 863.282 360.312L893.439 377.723C918.114 391.969 918.12 415.062 893.454 429.303L863.308 446.708C863.265 446.732 863.222 446.757 863.179 446.782C838.503 460.948 798.602 460.919 773.97 446.698L743.814 429.287C718.523 414.686 677.525 414.681 652.243 429.278L622.096 446.683C597.43 460.924 557.432 460.92 532.757 446.674L502.6 429.263C477.926 415.017 477.919 391.924 502.585 377.683L532.731 360.278ZM856.698 451.168C833.99 460.714 802.952 460.672 780.307 451.043C796.692 463.767 797.27 481.135 782.039 494.18C805.11 485.344 835.833 485.952 857.864 496C840.244 482.869 839.855 464.523 856.698 451.168ZM1018.11 496.392C1016.42 497.188 1014.79 498.04 1013.22 498.948L983.069 516.353C970.89 523.385 954.974 526.943 939.009 527.03C922.929 526.99 906.867 523.428 894.596 516.343L864.439 498.932C839.808 484.711 839.758 461.673 864.295 447.427C864.339 447.402 864.382 447.377 864.426 447.352L894.572 429.946C919.854 415.35 919.847 391.68 894.556 377.078L864.399 359.667C864.321 359.622 864.242 359.576 864.163 359.531C839.724 345.275 839.795 322.283 864.383 308.088L894.529 290.682C919.195 276.441 959.193 276.445 983.868 290.691L1014.02 308.102C1039.32 322.704 1080.31 322.708 1105.6 308.112L1135.74 290.706C1160.41 276.465 1200.41 276.469 1225.08 290.715L1255.24 308.126C1279.91 322.372 1279.92 345.465 1255.25 359.706L1225.11 377.111C1200.57 391.276 1160.87 391.348 1136.16 377.329L1107.33 360.68C1107.19 360.603 1107.06 360.527 1106.93 360.451L1105.61 359.691C1080.32 345.09 1039.32 345.086 1014.04 359.682L983.894 377.087C958.612 391.684 958.619 415.354 983.91 429.956L1014.07 447.367C1037.31 460.789 1038.66 482.066 1018.11 496.392ZM1065.53 349.797C1047.52 348.858 1028.94 352.367 1015.16 360.327L985.01 377.732C971.191 385.71 965.116 396.466 966.784 406.889C965.645 396.545 971.92 385.98 985.61 378.076L1015.76 360.671C1029.41 352.786 1047.66 349.162 1065.53 349.797ZM856.667 355.848C840.168 342.767 840.19 324.904 856.734 311.842C833.905 321.48 802.61 321.405 779.901 311.618C796.818 324.5 797.354 342.264 781.507 355.449C804.03 346.336 834.362 346.47 856.667 355.848ZM776.631 357.629C797.527 343.301 796.287 321.87 772.915 308.376L742.758 290.965C718.083 276.719 678.085 276.715 653.419 290.956L623.272 308.361C599.695 321.974 598.661 343.675 620.166 358.006C621.195 358.529 622.203 359.075 623.186 359.643L653.343 377.054C678.018 391.3 718.016 391.304 742.682 377.063L772.829 359.658C774.06 358.947 775.329 358.271 776.631 357.629ZM614.906 355.596C592.335 346.313 561.772 346.387 539.339 355.819C555.814 342.756 555.802 324.92 539.308 311.858C562.341 321.54 593.929 321.366 616.642 311.334C599.316 324.287 598.739 342.3 614.906 355.596ZM939.014 527.941C922.24 528.03 905.415 524.379 892.614 516.988L862.457 499.577C839.667 486.419 803.803 485.411 779.023 496.556C777.502 497.659 775.857 498.725 774.088 499.746L743.941 517.151C742.057 518.239 740.086 519.246 738.041 520.171C718.434 534.485 720.084 555.33 742.987 568.554L773.144 585.965C795.739 599.01 831.184 600.113 855.938 589.271C857.751 587.88 859.753 586.545 861.947 585.279L892.093 567.874C917.375 553.277 958.373 553.281 983.664 567.883L1013.82 585.294C1015.28 586.136 1016.65 587.009 1017.94 587.907C1042.77 600.203 1080.19 599.567 1103.7 585.998L1133.84 568.592C1155.86 555.882 1158.22 536.119 1140.93 521.889C1139.38 521.15 1137.89 520.363 1136.44 519.528L1106.28 502.117C1103.62 500.578 1101.24 498.939 1099.13 497.22C1075.99 486.206 1042.47 486.146 1019.23 497.043C1017.96 497.919 1016.62 498.769 1015.2 499.591L985.051 516.996C972.345 524.332 955.67 527.98 939.014 527.941ZM777.903 495.904C797.51 481.591 795.859 460.745 772.956 447.522L742.8 430.111C718.125 415.865 678.126 415.861 653.46 430.102L623.314 447.507C598.648 461.748 598.655 484.841 623.329 499.087L653.486 516.498C676.277 529.656 712.141 530.664 736.921 519.52C738.442 518.416 740.087 517.35 741.856 516.329L772.002 498.924C773.886 497.836 775.857 496.83 777.903 495.904ZM248.142 243.687C252.433 242.191 256.481 240.374 260.184 238.236L290.331 220.831C314.997 206.59 314.99 183.497 290.315 169.251L260.158 151.84C234.868 137.238 234.86 113.568 260.143 98.9715L290.289 81.5664C314.955 67.3254 314.948 44.2323 290.274 29.9865L260.117 12.5754C235.442 -1.67047 195.444 -1.67445 170.778 12.5665L140.631 29.9716C117.451 43.3549 116.061 64.5562 136.457 78.8853C138.087 79.6587 139.667 80.485 141.19 81.3643L171.347 98.7754C196.638 113.377 196.645 137.047 171.363 151.644L141.216 169.049C116.55 183.29 116.557 206.383 141.232 220.629L171.388 238.04C192.203 250.057 223.921 251.94 248.142 243.687ZM411.226 377.798L381.268 360.502C356.593 346.256 316.595 346.252 291.929 360.493L261.782 377.898C237.116 392.139 237.123 415.232 261.798 429.478L291.955 446.889C315.162 460.288 351.926 461.088 376.738 449.287C378.034 448.383 379.415 447.506 380.881 446.66L411.028 429.255C435.623 415.055 435.687 392.054 411.226 377.798ZM857.069 589.919C838.593 604.2 840.597 624.524 863.078 637.503L893.235 654.915C917.909 669.16 957.908 669.164 982.574 654.923L1012.72 637.518C1035.93 624.117 1037.29 602.877 1016.81 588.548C1015.59 587.94 1014.4 587.302 1013.24 586.633L983.085 569.222C958.41 554.976 918.412 554.972 893.746 569.213L863.599 586.618C861.523 587.817 859.34 588.917 857.069 589.919ZM1142.1 521.265C1166.92 533.08 1203.69 532.29 1226.9 518.893L1257.04 501.488C1281.71 487.247 1281.7 464.153 1257.03 449.908L1226.87 432.496C1202.2 418.251 1162.2 418.247 1137.53 432.488L1107.38 449.893C1085.37 462.603 1083.01 482.366 1100.3 496.596C1101.84 497.336 1103.34 498.123 1104.79 498.957L1134.94 516.368C1137.61 517.907 1139.99 519.546 1142.1 521.265ZM1105.82 361.098L1134.65 377.747C1134.79 377.824 1134.92 377.9 1135.05 377.976L1136.37 378.736C1161.66 393.337 1202.66 393.341 1227.94 378.745L1258.09 361.34C1282.75 347.099 1322.75 347.103 1347.42 361.348L1377.58 378.76C1402.26 393.005 1402.26 416.099 1377.6 430.34L1347.45 447.745C1322.78 461.986 1282.79 461.982 1258.11 447.736L1227.95 430.325C1202.66 415.723 1161.67 415.719 1136.38 430.315L1106.24 447.721C1081.57 461.962 1041.57 461.958 1016.9 447.712L986.741 430.301C962.067 416.055 962.06 392.962 986.726 378.721L1016.87 361.316C1041.41 347.151 1081.11 347.079 1105.82 361.098Z" fill="#F0F2F5"/>
</svg>
