<svg width="90" height="16" viewBox="0 0 90 16" fill="none" xmlns="http://www.w3.org/2000/svg">
<path d="M19.8647 11.5971H18.7849V10.2228H16.0144C15.3599 10.2228 15 9.87376 15 9.41564C15 9.17567 15.0873 8.90299 15.2836 8.6412L18.0323 4.77993C18.2941 4.41998 18.5558 4.1582 19.0685 4.1582C19.5266 4.1582 19.8647 4.47452 19.8647 4.97627V9.27384H21.0428V10.2228H19.8647V11.5971ZM16.1671 9.27384H18.7849V5.598C18.7849 5.53255 18.7631 5.47802 18.6867 5.47802C18.6104 5.47802 18.5777 5.54346 18.5013 5.64163L16.0798 9.09932C16.0471 9.14295 16.0362 9.17567 16.0362 9.2084C16.0362 9.27384 16.1017 9.27384 16.1671 9.27384Z" fill="white"/>
<path d="M23.0582 14.0513H21.9783V8.91389C21.9783 7.32139 23.2109 6.12156 24.8252 6.12156C26.4395 6.12156 27.6611 7.38684 27.6611 8.91389C27.6611 10.5282 26.494 11.728 24.8688 11.728C24.1489 11.728 23.4945 11.4117 23.0582 10.9318V14.0513ZM24.8252 10.7136C25.8178 10.7136 26.5813 9.89557 26.5813 8.9248C26.5813 7.94312 25.8178 7.14687 24.8252 7.14687C23.8217 7.14687 23.0582 7.94312 23.0582 8.9248C23.0582 9.89557 23.8217 10.7136 24.8252 10.7136Z" fill="white"/>
<path d="M29.9606 11.5971H28.8807V8.41214C28.8807 7.11415 29.6224 6.14338 31.0186 6.14338C31.3567 6.14338 31.7058 6.20882 31.9785 6.33971V7.40865C31.7167 7.25595 31.4113 7.17959 31.1168 7.17959C30.3969 7.17959 29.9606 7.67043 29.9606 8.45578V11.5971Z" fill="white"/>
<path d="M35.2883 11.728C33.674 11.728 32.4305 10.4628 32.4305 8.91389C32.4305 7.37593 33.6849 6.12156 35.2883 6.12156C36.9026 6.12156 38.1243 7.38684 38.1243 8.91389C38.1243 10.4628 36.8917 11.728 35.2883 11.728ZM35.2883 10.7027C36.2809 10.7027 37.0444 9.89557 37.0444 8.9248C37.0444 7.94312 36.2809 7.13596 35.2883 7.13596C34.2848 7.13596 33.5104 7.94312 33.5104 8.9248C33.5104 9.89557 34.2848 10.7027 35.2883 10.7027Z" fill="white"/>
<path d="M41.7408 14.1822C40.5846 14.1822 39.6247 13.6805 39.1339 12.7315L40.0392 12.2407C40.3555 12.8188 40.9445 13.1896 41.719 13.1896C42.8424 13.1896 43.6059 12.3825 43.6059 11.1281V10.7027C43.2569 11.259 42.6025 11.6735 41.708 11.6735C40.1919 11.6735 38.9921 10.4737 38.9921 8.90298C38.9921 7.37593 40.2137 6.12156 41.8389 6.12156C43.4532 6.12156 44.6858 7.32139 44.6858 8.91389V11.1172C44.6858 12.9715 43.4423 14.1822 41.7408 14.1822ZM41.828 10.6591C42.8097 10.6591 43.595 9.87376 43.595 8.89208C43.595 7.9104 42.8097 7.14687 41.828 7.14687C40.8573 7.14687 40.061 7.9104 40.061 8.89208C40.061 9.87376 40.8573 10.6591 41.828 10.6591Z" fill="white"/>
<path d="M47.3125 11.5971H46.2326V8.41214C46.2326 7.11415 46.9743 6.14338 48.3705 6.14338C48.7086 6.14338 49.0577 6.20882 49.3303 6.33971V7.40865C49.0686 7.25595 48.7632 7.17959 48.4687 7.17959C47.7488 7.17959 47.3125 7.67043 47.3125 8.45578V11.5971Z" fill="white"/>
<path d="M52.4657 11.728C50.9168 11.728 49.7824 10.4628 49.7824 8.91389C49.7824 7.38684 51.004 6.12156 52.6293 6.12156C54.2436 6.12156 55.4761 7.32139 55.4761 8.91389V11.5971H54.4508V10.6591C54.0472 11.3136 53.3383 11.728 52.4657 11.728ZM52.6293 10.7027C53.6328 10.7027 54.3963 9.89557 54.3963 8.9248C54.3963 7.94312 53.6328 7.13596 52.6293 7.13596C51.6367 7.13596 50.8623 7.94312 50.8623 8.9248C50.8623 9.89557 51.6367 10.7027 52.6293 10.7027Z" fill="white"/>
<path d="M78.2469 11.7171C76.6217 11.7171 75.411 10.5391 75.411 8.89208C75.411 7.35411 76.5126 6.09975 78.116 6.09975C79.7303 6.09975 80.7338 7.26685 80.7338 8.76119V9.19749H76.4581C76.5781 10.1137 77.2761 10.7573 78.236 10.7573C78.8904 10.7573 79.4795 10.4737 79.7958 9.88466L80.6247 10.3101C80.1557 11.2263 79.294 11.7171 78.2469 11.7171ZM76.5017 8.49941H79.654C79.6103 7.64862 78.9886 7.07052 78.1051 7.07052C77.1998 7.07052 76.6108 7.70315 76.5017 8.49941Z" fill="white"/>
<path d="M83.1029 11.5971H82.023V8.41214C82.023 7.11415 82.7647 6.14338 84.1609 6.14338C84.499 6.14338 84.8481 6.20882 85.1208 6.33971V7.40865C84.859 7.25595 84.5536 7.17959 84.2591 7.17959C83.5392 7.17959 83.1029 7.67043 83.1029 8.45578V11.5971Z" fill="white"/>
<path d="M87.8839 11.7171C86.8914 11.7171 86.1278 11.3245 85.7133 10.5282L86.5423 10.0701C86.815 10.6046 87.2513 10.8009 87.8403 10.8009C88.4511 10.8009 88.9202 10.55 88.9202 10.081C88.9202 8.95752 85.8551 9.80831 85.8551 7.7686C85.8551 6.83055 86.6841 6.14338 87.8512 6.14338C88.8438 6.14338 89.5201 6.60149 89.8582 7.22322L89.0292 7.69225C88.8002 7.22322 88.3639 7.05961 87.873 7.05961C87.3713 7.05961 86.935 7.32139 86.935 7.74678C86.935 8.83754 90 8.04129 90 10.0592C90 11.0736 89.0183 11.7171 87.8839 11.7171Z" fill="white"/>
<path d="M65.0866 11.5971H66.1416H66.1664V8.95752C66.1664 7.98675 66.6136 7.13596 67.6171 7.13596C68.6097 7.13596 69.1005 7.95403 69.1005 8.93571V11.5971H70.1804V8.93571C70.1804 7.95403 70.6712 7.13596 71.642 7.13596C72.6455 7.13596 73.1254 7.98675 73.1254 8.95752V11.5971H74.2052V8.783C74.2052 7.29958 73.3326 6.09975 71.7183 6.09975C70.7039 6.09975 69.9513 6.64512 69.6568 7.4741C69.3841 6.64512 68.6097 6.09975 67.5408 6.09975C66.6696 6.09975 65.8806 6.5825 65.6095 7.4741C65.304 6.57238 64.5327 6.09975 63.6547 6.09975C62.6403 6.09975 61.8877 6.64512 61.5932 7.4741C61.3205 6.64512 60.5461 6.09975 59.4771 6.09975C57.8737 6.09975 57.0229 7.29958 57.0229 8.79391V11.5971H58.1028V8.95752C58.1028 7.98675 58.55 7.13596 59.5535 7.13596C60.5461 7.13596 61.0369 7.95403 61.0369 8.93571V11.5971H62.1167V8.93571C62.1167 7.95403 62.6076 7.13596 63.5784 7.13596C64.5818 7.13596 65.0618 7.98675 65.0618 8.95752V11.5971H65.0866Z" fill="white"/>
<path d="M9.84375 7.88043H8.90625C8.1296 7.88043 7.5 7.25083 7.5 6.47418V5.53668C7.5 4.76003 8.1296 4.13043 8.90625 4.13043H9.84375C10.6204 4.13043 11.25 3.50083 11.25 2.72418V1.78668C11.25 1.01003 10.6204 0.380432 9.84375 0.380432H8.90625C8.1296 0.380432 7.5 1.01003 7.5 1.78668V2.72418C7.5 3.50083 6.8704 4.13043 6.09375 4.13043H5.15625C4.3796 4.13043 3.75 4.76003 3.75 5.53668V6.47418C3.75 7.25083 3.1204 7.88043 2.34375 7.88043H1.40625C0.6296 7.88043 0 8.51003 0 9.28668V10.2242C0 11.0008 0.6296 11.6304 1.40625 11.6304H6.09375C6.8704 11.6304 7.5 12.26 7.5 13.0367V13.9742C7.5 14.7508 8.1296 15.3804 8.90625 15.3804H9.84375C10.6204 15.3804 11.25 14.7508 11.25 13.9742V9.28668C11.25 8.51003 10.6204 7.88043 9.84375 7.88043Z" fill="#00a538"/>
</svg>
