<svg width="75" height="100" viewBox="0 0 75 100" fill="none" xmlns="http://www.w3.org/2000/svg">
<path d="M65.625 50H59.375C54.1973 50 50 45.8027 50 40.625V34.375C50 29.1973 54.1973 25 59.375 25H65.625C70.8027 25 75 20.8027 75 15.625V9.375C75 4.19733 70.8027 0 65.625 0H59.375C54.1973 0 50 4.19733 50 9.375V15.625C50 20.8027 45.8027 25 40.625 25H34.375C29.1973 25 25 29.1973 25 34.375V40.625C25 45.8027 20.8027 50 15.625 50H9.375C4.19733 50 0 54.1973 0 59.375V65.625C0 70.8027 4.19733 75 9.375 75H40.625C45.8027 75 50 79.1973 50 84.375V90.625C50 95.8027 54.1973 100 59.375 100H65.625C70.8027 100 75 95.8027 75 90.625V59.375C75 54.1973 70.8027 50 65.625 50Z" fill="#00a538"/>
</svg>
