<svg width="90" height="16" viewBox="0 0 90 16" fill="none" xmlns="http://www.w3.org/2000/svg">
<path d="M19.8647 11.8363H18.7849V10.4619H16.0144C15.3599 10.4619 15 10.1129 15 9.65478C15 9.41481 15.0873 9.14212 15.2836 8.88034L18.0323 5.01907C18.2941 4.65912 18.5558 4.39734 19.0685 4.39734C19.5266 4.39734 19.8647 4.71366 19.8647 5.2154V9.51298H21.0428V10.4619H19.8647V11.8363ZM16.1671 9.51298H18.7849V5.83714C18.7849 5.77169 18.7631 5.71715 18.6867 5.71715C18.6104 5.71715 18.5777 5.7826 18.5013 5.88077L16.0798 9.33846C16.0471 9.38209 16.0362 9.41481 16.0362 9.44753C16.0362 9.51298 16.1017 9.51298 16.1671 9.51298Z" fill="#0F0F0F"/>
<path d="M23.0582 14.2905H21.9783V9.15303C21.9783 7.56053 23.2109 6.3607 24.8252 6.3607C26.4395 6.3607 27.6611 7.62597 27.6611 9.15303C27.6611 10.7673 26.494 11.9672 24.8688 11.9672C24.1489 11.9672 23.4945 11.6509 23.0582 11.1709V14.2905ZM24.8252 10.9528C25.8178 10.9528 26.5813 10.1347 26.5813 9.16394C26.5813 8.18226 25.8178 7.38601 24.8252 7.38601C23.8217 7.38601 23.0582 8.18226 23.0582 9.16394C23.0582 10.1347 23.8217 10.9528 24.8252 10.9528Z" fill="#0F0F0F"/>
<path d="M29.9606 11.8363H28.8807V8.65128C28.8807 7.35328 29.6224 6.38251 31.0186 6.38251C31.3567 6.38251 31.7058 6.44796 31.9785 6.57885V7.64779C31.7167 7.49508 31.4113 7.41873 31.1168 7.41873C30.3969 7.41873 29.9606 7.90957 29.9606 8.69491V11.8363Z" fill="#0F0F0F"/>
<path d="M35.2883 11.9672C33.674 11.9672 32.4305 10.7019 32.4305 9.15303C32.4305 7.61506 33.6849 6.3607 35.2883 6.3607C36.9026 6.3607 38.1243 7.62597 38.1243 9.15303C38.1243 10.7019 36.8917 11.9672 35.2883 11.9672ZM35.2883 10.9419C36.2809 10.9419 37.0444 10.1347 37.0444 9.16394C37.0444 8.18226 36.2809 7.3751 35.2883 7.3751C34.2848 7.3751 33.5104 8.18226 33.5104 9.16394C33.5104 10.1347 34.2848 10.9419 35.2883 10.9419Z" fill="#0F0F0F"/>
<path d="M41.7408 14.4214C40.5846 14.4214 39.6247 13.9196 39.1339 12.9707L40.0392 12.4798C40.3555 13.0579 40.9445 13.4288 41.719 13.4288C42.8424 13.4288 43.6059 12.6216 43.6059 11.3673V10.9419C43.2569 11.4982 42.6025 11.9126 41.708 11.9126C40.1919 11.9126 38.9921 10.7128 38.9921 9.14212C38.9921 7.61506 40.2137 6.3607 41.8389 6.3607C43.4532 6.3607 44.6858 7.56053 44.6858 9.15303V11.3564C44.6858 13.2106 43.4423 14.4214 41.7408 14.4214ZM41.828 10.8982C42.8097 10.8982 43.595 10.1129 43.595 9.13121C43.595 8.14953 42.8097 7.38601 41.828 7.38601C40.8573 7.38601 40.061 8.14953 40.061 9.13121C40.061 10.1129 40.8573 10.8982 41.828 10.8982Z" fill="#0F0F0F"/>
<path d="M47.3125 11.8363H46.2326V8.65128C46.2326 7.35328 46.9743 6.38251 48.3705 6.38251C48.7086 6.38251 49.0577 6.44796 49.3303 6.57885V7.64779C49.0686 7.49508 48.7632 7.41873 48.4687 7.41873C47.7488 7.41873 47.3125 7.90957 47.3125 8.69491V11.8363Z" fill="#0F0F0F"/>
<path d="M52.4657 11.9672C50.9168 11.9672 49.7824 10.7019 49.7824 9.15303C49.7824 7.62597 51.004 6.3607 52.6293 6.3607C54.2436 6.3607 55.4761 7.56053 55.4761 9.15303V11.8363H54.4508V10.8982C54.0472 11.5527 53.3383 11.9672 52.4657 11.9672ZM52.6293 10.9419C53.6328 10.9419 54.3963 10.1347 54.3963 9.16394C54.3963 8.18226 53.6328 7.3751 52.6293 7.3751C51.6367 7.3751 50.8623 8.18226 50.8623 9.16394C50.8623 10.1347 51.6367 10.9419 52.6293 10.9419Z" fill="#0F0F0F"/>
<path d="M78.2469 11.9563C76.6217 11.9563 75.411 10.7783 75.411 9.13121C75.411 7.59325 76.5126 6.33888 78.116 6.33888C79.7303 6.33888 80.7338 7.50599 80.7338 9.00032V9.43662H76.4581C76.5781 10.3529 77.2761 10.9964 78.236 10.9964C78.8904 10.9964 79.4795 10.7128 79.7958 10.1238L80.6247 10.5492C80.1557 11.4654 79.294 11.9563 78.2469 11.9563ZM76.5017 8.73854H79.654C79.6103 7.88775 78.9886 7.30965 78.1051 7.30965C77.1998 7.30965 76.6108 7.94229 76.5017 8.73854Z" fill="#0F0F0F"/>
<path d="M83.1029 11.8363H82.023V8.65128C82.023 7.35328 82.7647 6.38251 84.1609 6.38251C84.499 6.38251 84.8481 6.44796 85.1208 6.57885V7.64779C84.859 7.49508 84.5536 7.41873 84.2591 7.41873C83.5392 7.41873 83.1029 7.90957 83.1029 8.69491V11.8363Z" fill="#0F0F0F"/>
<path d="M87.8839 11.9563C86.8914 11.9563 86.1278 11.5636 85.7133 10.7673L86.5423 10.3092C86.815 10.8437 87.2513 11.04 87.8403 11.04C88.4511 11.04 88.9202 10.7892 88.9202 10.3201C88.9202 9.19666 85.8551 10.0474 85.8551 8.00774C85.8551 7.06969 86.6841 6.38251 87.8512 6.38251C88.8438 6.38251 89.5201 6.84063 89.8582 7.46236L89.0292 7.93138C88.8002 7.46236 88.3639 7.29875 87.873 7.29875C87.3713 7.29875 86.935 7.56053 86.935 7.98592C86.935 9.07667 90 8.28043 90 10.2983C90 11.3127 89.0183 11.9563 87.8839 11.9563Z" fill="#0F0F0F"/>
<path d="M65.0866 11.8363H66.1416H66.1664V9.19666C66.1664 8.22589 66.6136 7.3751 67.6171 7.3751C68.6097 7.3751 69.1005 8.19316 69.1005 9.17484V11.8363H70.1804V9.17484C70.1804 8.19316 70.6712 7.3751 71.642 7.3751C72.6455 7.3751 73.1254 8.22589 73.1254 9.19666V11.8363H74.2052V9.02214C74.2052 7.53871 73.3326 6.33888 71.7183 6.33888C70.7039 6.33888 69.9513 6.88426 69.6568 7.71323C69.3841 6.88426 68.6097 6.33888 67.5408 6.33888C66.6696 6.33888 65.8806 6.82163 65.6095 7.71323C65.304 6.81152 64.5327 6.33888 63.6547 6.33888C62.6403 6.33888 61.8877 6.88426 61.5932 7.71323C61.3205 6.88426 60.5461 6.33888 59.4771 6.33888C57.8737 6.33888 57.0229 7.53871 57.0229 9.03304V11.8363H58.1028V9.19666C58.1028 8.22589 58.55 7.3751 59.5535 7.3751C60.5461 7.3751 61.0369 8.19316 61.0369 9.17484V11.8363H62.1167V9.17484C62.1167 8.19316 62.6076 7.3751 63.5784 7.3751C64.5818 7.3751 65.0618 8.22589 65.0618 9.19666V11.8363H65.0866Z" fill="#0F0F0F"/>
<path d="M9.84375 8.11957H8.90625C8.1296 8.11957 7.5 7.48997 7.5 6.71332V5.77582C7.5 4.99917 8.1296 4.36957 8.90625 4.36957H9.84375C10.6204 4.36957 11.25 3.73997 11.25 2.96332V2.02582C11.25 1.24917 10.6204 0.619568 9.84375 0.619568H8.90625C8.1296 0.619568 7.5 1.24917 7.5 2.02582V2.96332C7.5 3.73997 6.8704 4.36957 6.09375 4.36957H5.15625C4.3796 4.36957 3.75 4.99917 3.75 5.77582V6.71332C3.75 7.48997 3.1204 8.11957 2.34375 8.11957H1.40625C0.6296 8.11957 0 8.74917 0 9.52582V10.4633C0 11.24 0.6296 11.8696 1.40625 11.8696H6.09375C6.8704 11.8696 7.5 12.4992 7.5 13.2758V14.2133C7.5 14.99 8.1296 15.6196 8.90625 15.6196H9.84375C10.6204 15.6196 11.25 14.99 11.25 14.2133V9.52582C11.25 8.74917 10.6204 8.11957 9.84375 8.11957Z" fill="#00a538"/>
</svg>
