<svg xmlns="http://www.w3.org/2000/svg" xmlns:xlink="http://www.w3.org/1999/xlink" xmlns:cc="http://creativecommons.org/ns#" xmlns:dc="http://purl.org/dc/elements/1.1/" xmlns:rdf="http://www.w3.org/1999/02/22-rdf-syntax-ns#"><symbol id="sprite-logo-php" viewBox="0 0 711.201 383.598"><title>sprite-logo-php</title><defs><clipPath clipPathUnits="userSpaceOnUse" id="a"><path d="M11.52 162C11.52 81.677 135.307 16.561 288 16.561S564.481 81.677 564.481 162c0 80.322-123.788 145.439-276.481 145.439-152.693 0-276.48-65.117-276.48-145.439"/></clipPath><radialGradient cx="0" cy="0" fx="0" fy="0" gradientTransform="matrix(363.05789 0 0 -363.05789 177.52 256.307)" gradientUnits="userSpaceOnUse" id="b" r="1" spreadMethod="pad"><stop offset="0" stop-color="#aeb2d5"/><stop offset=".3" stop-color="#aeb2d5"/><stop offset=".75" stop-color="#484c89"/><stop offset="1" stop-color="#484c89"/></radialGradient><clipPath clipPathUnits="userSpaceOnUse" id="c"><path d="M0 324h576V0H0v324z"/></clipPath><clipPath clipPathUnits="userSpaceOnUse" id="d"><path d="M0 324h576V0H0v324z"/></clipPath></defs><g clip-path="url(#a)" transform="matrix(1.25 0 0 -1.25 -4.4 394.299)"><path d="M11.52 162C11.52 81.677 135.307 16.561 288 16.561S564.481 81.677 564.481 162c0 80.322-123.788 145.439-276.481 145.439-152.693 0-276.48-65.117-276.48-145.439" fill="url(#b)"/></g><g clip-path="url(#c)" transform="matrix(1.25 0 0 -1.25 -4.4 394.299)"><path d="M288 27.36c146.729 0 265.68 60.28 265.68 134.64 0 74.36-118.951 134.641-265.68 134.641S22.32 236.36 22.32 162.001C22.32 87.64 141.271 27.358 288 27.358" fill="#777bb3"/></g><g clip-path="url(#d)" transform="matrix(1.25 0 0 -1.25 -4.4 394.299)"><path d="M161.734 145.307c12.065 0 21.072 2.225 26.771 6.61 5.638 4.342 9.532 11.863 11.573 22.354 1.903 9.806 1.178 16.653-2.154 20.348-3.407 3.774-10.773 5.688-21.893 5.688h-19.28l-10.69-55h15.673zm-63.063-67.75a2.998 2.998 0 0 0-2.944 3.572l28.328 145.75a3 3 0 0 0 2.945 2.428h61.054c19.188 0 33.47-5.21 42.447-15.487 9.025-10.331 11.812-24.772 8.283-42.921-1.436-7.394-3.906-14.261-7.34-20.41-3.44-6.154-7.985-11.85-13.512-16.93-6.616-6.191-14.104-10.681-22.236-13.323-8.003-2.607-18.28-3.93-30.548-3.93h-24.722l-7.06-36.321a3 3 0 0 0-2.944-2.428h-31.75z"/><path d="M159.224 197.307h16.808c13.42 0 18.083-2.945 19.667-4.7 2.628-2.914 3.124-9.058 1.435-17.767-1.898-9.75-5.416-16.663-10.458-20.545-5.162-3.974-13.554-5.988-24.941-5.988H149.7l9.523 49zm28.83 35H127a6 6 0 0 1-5.89-4.855L92.784 81.702a6 6 0 0 1 5.889-7.144h31.75a6 6 0 0 1 5.89 4.854l6.588 33.895h22.249c12.582 0 23.174 1.372 31.479 4.077 8.54 2.775 16.399 7.48 23.354 13.984 5.752 5.292 10.49 11.232 14.08 17.657 3.59 6.427 6.17 13.594 7.668 21.302 3.715 19.104.697 34.402-8.97 45.466-9.571 10.958-24.613 16.514-44.705 16.514m-45.633-90h19.313c12.8 0 22.336 2.411 28.6 7.234 6.267 4.824 10.493 12.875 12.689 24.157 2.1 10.832 1.144 18.476-2.871 22.93-4.02 4.452-12.06 6.68-24.121 6.68h-21.754l-11.856-61m45.633 84c18.367 0 31.766-4.82 40.188-14.462 8.42-9.64 10.957-23.098 7.597-40.375-1.383-7.117-3.722-13.624-7.015-19.519-3.297-5.899-7.602-11.293-12.922-16.184-6.34-5.933-13.383-10.16-21.133-12.679-7.75-2.525-17.621-3.782-29.621-3.782h-27.196l-7.531-38.75h-31.75L127 226.307h61.055" fill="#fff"/><path d="M311.583 116.307c-.896 0-1.745.4-2.314 1.092a2.994 2.994 0 0 0-.631 2.48l12.531 64.489c1.192 6.133.898 10.535-.827 12.395-1.056 1.137-4.228 3.044-13.607 3.044h-22.702l-15.755-81.072a3 3 0 0 0-2.945-2.428h-31.5a2.998 2.998 0 0 0-2.945 3.572l28.328 145.75a3 3 0 0 0 2.945 2.428h31.5a3 3 0 0 0 2.945-3.572l-6.836-35.178h24.422c18.605 0 31.221-3.28 38.569-10.028 7.49-6.884 9.827-17.891 6.947-32.72l-13.18-67.824a3 3 0 0 0-2.945-2.428h-32z"/><path d="M293.661 271.057h-31.5a6 6 0 0 1-5.89-4.855l-28.328-145.75a5.998 5.998 0 0 1 5.89-7.145h31.5a6 6 0 0 1 5.89 4.855l15.283 78.645h20.23c9.362 0 11.327-2 11.406-2.086.568-.61 1.315-3.44.082-9.78l-12.53-64.49a5.998 5.998 0 0 1 5.89-7.144h32a6 6 0 0 1 5.89 4.855l13.178 67.825c3.093 15.921.447 27.864-7.86 35.5-7.929 7.281-21.209 10.82-40.6 10.82h-20.784l6.143 31.605a6.001 6.001 0 0 1-5.89 7.145m0-6l-7.53-38.75h28.061c17.657 0 29.836-3.082 36.54-9.238 6.702-6.16 8.71-16.14 6.031-29.938l-13.18-67.824h-32l12.531 64.488c1.426 7.336.902 12.34-1.574 15.008-2.477 2.668-7.746 4.004-15.805 4.004H281.56l-16.226-83.5h-31.5l28.328 145.75h31.5" fill="#fff"/><path d="M409.55 145.307c12.065 0 21.072 2.225 26.77 6.61 5.639 4.34 9.533 11.862 11.575 22.354 1.903 9.806 1.178 16.653-2.155 20.348-3.407 3.774-10.773 5.688-21.893 5.688h-19.281l-10.69-55h15.674zm-63.062-67.75a2.999 2.999 0 0 0-2.945 3.572l28.328 145.75a3.002 3.002 0 0 0 2.946 2.428h61.053c19.189 0 33.47-5.21 42.448-15.487 9.025-10.33 11.81-24.771 8.283-42.921-1.438-7.394-3.907-14.261-7.342-20.41-3.44-6.154-7.984-11.85-13.511-16.93-6.616-6.191-14.104-10.681-22.236-13.323-8.003-2.607-18.281-3.93-30.548-3.93H388.24l-7.057-36.321a3.001 3.001 0 0 0-2.946-2.428h-31.75z"/><path d="M407.04 197.307h16.807c13.421 0 18.083-2.945 19.667-4.7 2.63-2.914 3.125-9.058 1.435-17.766-1.898-9.75-5.417-16.664-10.458-20.546-5.162-3.974-13.554-5.988-24.94-5.988h-12.034l9.522 49zm28.83 35h-61.054a6 6 0 0 1-5.889-4.855L340.6 81.702a6 6 0 0 1 5.889-7.144h31.75a6 6 0 0 1 5.89 4.854l6.587 33.895h22.25c12.581 0 23.173 1.372 31.478 4.077 8.541 2.775 16.401 7.481 23.356 13.986 5.752 5.291 10.488 11.23 14.078 17.655 3.591 6.427 6.171 13.594 7.668 21.302 3.715 19.105.697 34.403-8.969 45.467-9.572 10.957-24.613 16.513-44.706 16.513m-45.632-90h19.312c12.801 0 22.336 2.411 28.601 7.234 6.267 4.824 10.492 12.875 12.688 24.157 2.102 10.832 1.145 18.476-2.87 22.93-4.02 4.452-12.06 6.68-24.122 6.68h-21.754l-11.855-61m45.632 84c18.367 0 31.766-4.82 40.188-14.462 8.422-9.64 10.957-23.098 7.597-40.375-1.383-7.117-3.722-13.624-7.015-19.519-3.297-5.899-7.602-11.293-12.922-16.184-6.34-5.933-13.383-10.16-21.133-12.679-7.75-2.525-17.62-3.782-29.62-3.782h-27.197l-7.53-38.75h-31.75l28.328 145.75h61.054" fill="#fff"/></g></symbol><use xlink:href="#sprite-logo-php" x="0" y="0" width="711.201" height="383.598"/><view id="sprite-logo-php-fragment" viewBox="0 0 711.201 383.598"/><symbol id="sprite-logo-java" viewBox="0 0 128 128"><title>sprite-logo-java</title><path fill="#0074BD" d="M47.617 98.12s-4.767 2.774 3.397 3.71c9.892 1.13 14.947.968 25.845-1.092 0 0 2.871 1.795 6.873 3.351-24.439 10.47-55.308-.607-36.115-5.969zm-2.988-13.665s-5.348 3.959 2.823 4.805c10.567 1.091 18.91 1.18 33.354-1.6 0 0 1.993 2.025 5.132 3.131-29.542 8.64-62.446.68-41.309-6.336z"/><path fill="#EA2D2E" d="M69.802 61.271c6.025 6.935-1.58 13.17-1.58 13.17s15.289-7.891 8.269-17.777c-6.559-9.215-11.587-13.792 15.635-29.58 0 .001-42.731 10.67-22.324 34.187z"/><path fill="#0074BD" d="M102.123 108.229s3.529 2.91-3.888 5.159c-14.102 4.272-58.706 5.56-71.094.171-4.451-1.938 3.899-4.625 6.526-5.192 2.739-.593 4.303-.485 4.303-.485-4.953-3.487-32.013 6.85-13.743 9.815 49.821 8.076 90.817-3.637 77.896-9.468zM49.912 70.294s-22.686 5.389-8.033 7.348c6.188.828 18.518.638 30.011-.326 9.39-.789 18.813-2.474 18.813-2.474s-3.308 1.419-5.704 3.053c-23.042 6.061-67.544 3.238-54.731-2.958 10.832-5.239 19.644-4.643 19.644-4.643zm40.697 22.747c23.421-12.167 12.591-23.86 5.032-22.285-1.848.385-2.677.72-2.677.72s.688-1.079 2-1.543c14.953-5.255 26.451 15.503-4.823 23.725 0-.002.359-.327.468-.617z"/><path fill="#EA2D2E" d="M76.491 1.587S89.459 14.563 64.188 34.51c-20.266 16.006-4.621 25.13-.007 35.559-11.831-10.673-20.509-20.07-14.688-28.815C58.041 28.42 81.722 22.195 76.491 1.587z"/><path fill="#0074BD" d="M52.214 126.021c22.476 1.437 57-.8 57.817-11.436 0 0-1.571 4.032-18.577 7.231-19.186 3.612-42.854 3.191-56.887.874 0 .001 2.875 2.381 17.647 3.331z"/></symbol><use xlink:href="#sprite-logo-java" x="0" y="383.598" width="128" height="128"/><view id="sprite-logo-java-fragment" viewBox="0 383.598 128 128"/><symbol id="sprite-logo-javascript" viewBox="0 0 128 128"><title>sprite-logo-javascript</title><path fill="#F0DB4F" d="M1.408 1.408h125.184v125.185H1.408z"/><path fill="#323330" d="M116.347 96.736c-.917-5.711-4.641-10.508-15.672-14.981-3.832-1.761-8.104-3.022-9.377-5.926-.452-1.69-.512-2.642-.226-3.665.821-3.32 4.784-4.355 7.925-3.403 2.023.678 3.938 2.237 5.093 4.724 5.402-3.498 5.391-3.475 9.163-5.879-1.381-2.141-2.118-3.129-3.022-4.045-3.249-3.629-7.676-5.498-14.756-5.355l-3.688.477c-3.534.893-6.902 2.748-8.877 5.235-5.926 6.724-4.236 18.492 2.975 23.335 7.104 5.332 17.54 6.545 18.873 11.531 1.297 6.104-4.486 8.08-10.234 7.378-4.236-.881-6.592-3.034-9.139-6.949-4.688 2.713-4.688 2.713-9.508 5.485 1.143 2.499 2.344 3.63 4.26 5.795 9.068 9.198 31.76 8.746 35.83-5.176.165-.478 1.261-3.666.38-8.581zM69.462 58.943H57.753l-.048 30.272c0 6.438.333 12.34-.714 14.149-1.713 3.558-6.152 3.117-8.175 2.427-2.059-1.012-3.106-2.451-4.319-4.485-.333-.584-.583-1.036-.667-1.071l-9.52 5.83c1.583 3.249 3.915 6.069 6.902 7.901 4.462 2.678 10.459 3.499 16.731 2.059 4.082-1.189 7.604-3.652 9.448-7.401 2.666-4.915 2.094-10.864 2.07-17.444.06-10.735.001-21.468.001-32.237z"/></symbol><use xlink:href="#sprite-logo-javascript" x="0" y="511.598" width="128" height="128"/><view id="sprite-logo-javascript-fragment" viewBox="0 511.598 128 128"/><symbol id="sprite-logo-cpp" viewBox="0 0 128 128"><title>sprite-logo-cpp</title><path fill="#D26383" d="M115.4 30.7L67.1 2.9c-.8-.5-1.9-.7-3.1-.7-1.2 0-2.3.3-3.1.7l-48 27.9c-1.7 1-2.9 3.5-2.9 5.4v55.7c0 1.1.2 2.4 1 3.5l106.8-62c-.6-1.2-1.5-2.1-2.4-2.7z"/><path fill="#9C033A" d="M10.7 95.3c.5.8 1.2 1.5 1.9 1.9l48.2 27.9c.8.5 1.9.7 3.1.7 1.2 0 2.3-.3 3.1-.7l48-27.9c1.7-1 2.9-3.5 2.9-5.4V36.1c0-.9-.1-1.9-.6-2.8l-106.6 62z"/><path fill="#fff" d="M85.3 76.1C81.1 83.5 73.1 88.5 64 88.5c-13.5 0-24.5-11-24.5-24.5s11-24.5 24.5-24.5c9.1 0 17.1 5 21.3 12.5l13-7.5c-6.8-11.9-19.6-20-34.3-20-21.8 0-39.5 17.7-39.5 39.5s17.7 39.5 39.5 39.5c14.6 0 27.4-8 34.2-19.8l-12.9-7.6z"/><path d="M82.1 61.8h5.2v-5.3h4.4v5.3H97v4.4h-5.3v5.2h-4.4v-5.2h-5.2v-4.4zm18.5 0h5.2v-5.3h4.4v5.3h5.3v4.4h-5.3v5.2h-4.4v-5.2h-5.2v-4.4z" fill="#fff"/></symbol><use xlink:href="#sprite-logo-cpp" x="0" y="639.598" width="128" height="128"/><view id="sprite-logo-cpp-fragment" viewBox="0 639.598 128 128"/><symbol id="sprite-logo-csharp" viewBox="0 0 128 128"><title>sprite-logo-csharp</title><path fill="#9B4F96" d="M115.4 30.7L67.1 2.9c-.8-.5-1.9-.7-3.1-.7-1.2 0-2.3.3-3.1.7l-48 27.9c-1.7 1-2.9 3.5-2.9 5.4v55.7c0 1.1.2 2.4 1 3.5l106.8-62c-.6-1.2-1.5-2.1-2.4-2.7z"/><path fill="#68217A" d="M10.7 95.3c.5.8 1.2 1.5 1.9 1.9l48.2 27.9c.8.5 1.9.7 3.1.7 1.2 0 2.3-.3 3.1-.7l48-27.9c1.7-1 2.9-3.5 2.9-5.4V36.1c0-.9-.1-1.9-.6-2.8l-106.6 62z"/><path fill="#fff" d="M85.3 76.1C81.1 83.5 73.1 88.5 64 88.5c-13.5 0-24.5-11-24.5-24.5s11-24.5 24.5-24.5c9.1 0 17.1 5 21.3 12.5l13-7.5c-6.8-11.9-19.6-20-34.3-20-21.8 0-39.5 17.7-39.5 39.5s17.7 39.5 39.5 39.5c14.6 0 27.4-8 34.2-19.8l-12.9-7.6zM97 66.2l.9-4.3h-4.2v-4.7h5.1L100 51h4.9l-1.2 6.1h3.8l1.2-6.1h4.8l-1.2 6.1h2.4v4.7h-3.3l-.9 4.3h4.2v4.7h-5.1l-1.2 6h-4.9l1.2-6h-3.8l-1.2 6h-4.8l1.2-6h-2.4v-4.7H97zm4.8 0h3.8l.9-4.3h-3.8l-.9 4.3z"/></symbol><use xlink:href="#sprite-logo-csharp" x="0" y="767.598" width="128" height="128"/><view id="sprite-logo-csharp-fragment" viewBox="0 767.598 128 128"/><symbol id="sprite-logo-css" viewBox="0 0 128 128"><title>sprite-logo-css</title><path fill="#1572B6" d="M18.814 114.123L8.76 1.352h110.48l-10.064 112.754-45.243 12.543-45.119-12.526z"/><path fill="#33A9DC" d="M64.001 117.062l36.559-10.136 8.601-96.354h-45.16v106.49z"/><path fill="#fff" d="M64.001 51.429h18.302l1.264-14.163H64.001V23.435h34.682l-.332 3.711-3.4 38.114h-30.95V51.429z"/><path fill="#EBEBEB" d="M64.083 87.349l-.061.018-15.403-4.159-.985-11.031H33.752l1.937 21.717 28.331 7.863.063-.018v-14.39z"/><path fill="#fff" d="M81.127 64.675l-1.666 18.522-15.426 4.164v14.39l28.354-7.858.208-2.337 2.406-26.881H81.127z"/><path fill="#EBEBEB" d="M64.048 23.435v13.831H30.64l-.277-3.108-.63-7.012-.331-3.711h34.646zm-.047 27.996v13.831H48.792l-.277-3.108-.631-7.012-.33-3.711h16.447z"/></symbol><use xlink:href="#sprite-logo-css" x="0" y="895.598" width="128" height="128"/><view id="sprite-logo-css-fragment" viewBox="0 895.598 128 128"/><symbol id="sprite-logo-android" viewBox="0 0 128 128"><title>sprite-logo-android</title><path fill="#fff" d="M21.012 91.125c-5.538.003-10.038-4.503-10.039-10.04l-.002-30.739c-.002-5.532 4.497-10.037 10.028-10.038 2.689-.002 5.207 1.041 7.105 2.937s2.942 4.418 2.944 7.099l-.003 30.74a9.924 9.924 0 0 1-2.931 7.094 9.962 9.962 0 0 1-7.102 2.947m-.008-48.12c-4.053-.002-7.338 3.291-7.339 7.341l.005 30.736a7.347 7.347 0 0 0 7.341 7.348 7.338 7.338 0 0 0 7.339-7.347V50.342a7.345 7.345 0 0 0-7.346-7.337"/><path fill="#fff" d="M99.742 44.527l-2.698-.001-66.119.009-2.699.001-.002-2.699c-.006-11.08 6.03-21.385 15.917-27.473l-3.844-7.017c-.47-.822-.588-1.863-.314-2.815a3.732 3.732 0 0 1 1.814-2.239 3.605 3.605 0 0 1 1.759-.447c1.362 0 2.609.739 3.267 1.933l4.023 7.329a37.842 37.842 0 0 1 13.099-2.305c4.606-.002 9.023.777 13.204 2.311l4.017-7.341a3.711 3.711 0 0 1 3.263-1.932 3.712 3.712 0 0 1 1.761.438A3.706 3.706 0 0 1 88 4.524a3.69 3.69 0 0 1-.318 2.832l-3.842 7.013c9.871 6.101 15.9 16.398 15.899 27.459l.003 2.699zM80.196 15.403l5.123-9.355a1.019 1.019 0 0 0-1.783-.981l-5.176 9.45c-4.354-1.934-9.229-3.021-14.382-3.016-5.142-.005-10.008 1.078-14.349 3.005l-5.181-9.429a1.009 1.009 0 0 0-1.379-.405c-.497.266-.68.891-.403 1.379l5.125 9.348c-10.07 5.194-16.874 15.084-16.868 26.439l66.118-.008c.003-11.351-6.789-21.221-16.845-26.427M48.94 29.86a2.772 2.772 0 0 1 .003-5.545 2.78 2.78 0 0 1 2.775 2.774 2.775 2.775 0 0 1-2.778 2.771m30.107-.006a2.767 2.767 0 0 1-2.772-2.771 2.788 2.788 0 0 1 2.773-2.778 2.79 2.79 0 0 1 2.767 2.779 2.769 2.769 0 0 1-2.768 2.77m-27.336 96.305c-5.533-.001-10.036-4.501-10.037-10.038l-.002-13.567-2.638.003a10.453 10.453 0 0 1-7.448-3.082 10.437 10.437 0 0 1-3.083-7.452l-.01-47.627v-2.701h2.699l65.623-.01 2.7-.002v2.699l.007 47.633c.001 5.809-4.725 10.536-10.532 10.535l-2.654.002.003 13.562c0 5.534-4.502 10.039-10.033 10.039a9.933 9.933 0 0 1-7.098-2.937 9.952 9.952 0 0 1-2.947-7.096v-13.568H61.75v13.565c-.002 5.535-4.503 10.043-10.039 10.042"/><path fill="#fff" d="M31.205 92.022a7.82 7.82 0 0 0 7.831 7.837h5.333l.006 16.264c-.001 4.05 3.289 7.341 7.335 7.342a7.342 7.342 0 0 0 7.338-7.348l.001-16.259 9.909-.003-.001 16.263c.004 4.051 3.298 7.346 7.343 7.338 4.056.003 7.344-3.292 7.343-7.344l-.005-16.259 5.353-.001c4.319.001 7.832-3.508 7.832-7.837l-.009-47.635-65.621.012.012 47.63zm75.791-.91c-5.536.001-10.039-4.498-10.038-10.036l-.008-30.738c.002-5.537 4.498-10.041 10.031-10.041 5.54-.001 10.046 4.502 10.045 10.038l.003 30.736c.001 5.534-4.498 10.042-10.033 10.041m-.01-48.116c-4.053-.004-7.337 3.287-7.337 7.342l.003 30.737a7.336 7.336 0 0 0 7.342 7.34 7.338 7.338 0 0 0 7.338-7.343l-.008-30.736a7.335 7.335 0 0 0-7.338-7.34"/><path fill="#A4C439" d="M21.004 43.005c-4.053-.002-7.338 3.291-7.339 7.341l.005 30.736a7.338 7.338 0 0 0 7.342 7.343 7.33 7.33 0 0 0 7.338-7.342V50.342a7.345 7.345 0 0 0-7.346-7.337m59.192-27.602l5.123-9.355a1.023 1.023 0 0 0-.401-1.388 1.022 1.022 0 0 0-1.382.407l-5.175 9.453c-4.354-1.938-9.227-3.024-14.383-3.019-5.142-.005-10.013 1.078-14.349 3.005l-5.181-9.429a1.01 1.01 0 0 0-1.378-.406 1.007 1.007 0 0 0-.404 1.38l5.125 9.349c-10.07 5.193-16.874 15.083-16.868 26.438l66.118-.008c.003-11.351-6.789-21.221-16.845-26.427M48.94 29.86a2.772 2.772 0 0 1 .003-5.545 2.78 2.78 0 0 1 2.775 2.774 2.775 2.775 0 0 1-2.778 2.771m30.107-.006a2.77 2.77 0 0 1-2.772-2.771 2.793 2.793 0 0 1 2.773-2.778 2.79 2.79 0 0 1 2.767 2.779 2.767 2.767 0 0 1-2.768 2.77M31.193 44.392l.011 47.635a7.822 7.822 0 0 0 7.832 7.831l5.333.002.006 16.264c-.001 4.05 3.291 7.342 7.335 7.342 4.056 0 7.342-3.295 7.343-7.347l-.004-16.26 9.909-.003.004 16.263c0 4.047 3.293 7.346 7.338 7.338 4.056.003 7.344-3.292 7.343-7.344l-.005-16.259 5.352-.004a7.835 7.835 0 0 0 7.836-7.834l-.009-47.635-65.624.011zm83.134 5.943a7.338 7.338 0 0 0-7.341-7.339c-4.053-.004-7.337 3.287-7.337 7.342l.006 30.738a7.334 7.334 0 0 0 7.339 7.339 7.337 7.337 0 0 0 7.338-7.343l-.005-30.737z"/></symbol><use xlink:href="#sprite-logo-android" x="0" y="1023.598" width="128" height="128"/><view id="sprite-logo-android-fragment" viewBox="0 1023.598 128 128"/><symbol id="sprite-logo-lazarus" viewBox="0 0 64 64"><title>sprite-logo-lazarus</title><path d="M32 5A28 28 0 0 0 4 33a28 28 0 0 0 28 28 28 28 0 0 0 28-28A28 28 0 0 0 32 5z" opacity=".2"/><path d="M32 4A28 28 0 0 0 4 32a28 28 0 0 0 28 28 28 28 0 0 0 28-28A28 28 0 0 0 32 4z" fill="#769edc"/><path d="M32.362 15c-.216 0-.175.84.05 1.031.255.215.629.966.739 1.485l.086.406-.7.148c-1.666.353-1.989 1.502-.914 3.242.378.612.379.629.305 1.954-.055.993-.025 1.496.113 1.972.216.739.817 1.418 1.446 1.633.695.238 2.583.126 3.285-.195.768-.351 1.768-1.394 2.047-2.137.328-.875.203-2.082-.32-3.137-.504-1.013-1.815-2.392-2.727-2.863-.482-.249-.71-.46-.871-.816-.23-.508-2.296-2.723-2.54-2.723zm-11.95 4a.094.094 0 0 0-.078.031c-.25.25-.452 1.566-.43 2.793.022 1.162-.008 1.402-.238 1.79-.763 1.286-.893 3.642-.273 4.98.548 1.182 1.456 1.904 2.84 2.25.966.24 1.618.207 2.527-.125 2.504-.916 2.938-2.702 1.14-4.715-.728-.817-1.066-1.482-1.066-2.086 0-.735-.27-1.454-.722-1.938-.408-.435-.431-.44-1.211-.37-.438.038-.953.108-1.145.156-.318.08-.368.036-.597-.473a3.382 3.382 0 0 1-.254-1.148c-.003-.504-.291-1.127-.492-1.145zm25.415 2.004c-.316-.063-.413.669-.16 1.2.116.244.193.659.171.921l-.039.477-.672.011c-.52.01-.772.094-1.136.371-.427.325-1.08 1.426-1.082 1.829-.001.089-.398.954-.883 1.921-.485.968-.922 1.954-.973 2.188-.274 1.257.486 2.196 2.305 2.851.768.277 1.57.299 2.441.067 1.415-.377 2.325-1.09 2.875-2.258.29-.616.33-.865.324-1.984-.007-1.45-.281-2.366-1.023-3.41-.231-.326-.515-.962-.629-1.41-.234-.92-1.218-2.714-1.52-2.774zm-32.668 10c-.033-.008-.057-.004-.075.015-.26.281.132 3.004.528 3.653.097.16.234.704.308 1.207.339 2.282 1.931 4.415 3.739 5.008.617.202 1.957.127 2.824-.157.716-.234.956-.396 1.496-1.004 1.121-1.261 1.326-2.509.574-3.519-.199-.268-.808-.766-1.351-1.11a61.594 61.594 0 0 1-2.102-1.406c-1.79-1.26-1.98-1.376-2.473-1.523-.626-.187-1.264.012-1.785.555l-.41.421-.254-.449c-.141-.249-.257-.578-.258-.73 0-.273-.534-.908-.761-.961zM36.006 33c-.786.004-1.694.13-2.742.383-2.96.714-4.36 1.565-4.996 3.035-.276.636-.298.856-.223 2.074.077 1.239.056 1.417-.234 2.035-.295.628-.636.983-2.2 2.297-.496.418-.541.515-.597 1.281-.052.714 0 .948.36 1.711.767 1.63 2.152 2.723 3.886 3.063.821.16 1.364.16 2.774.004 5.48-.61 11.778-2.586 13.578-4.258.94-.874 1.316-1.68 1.379-2.96.12-2.445-.981-3.91-2.946-3.919-1.538-.006-3.084-.9-3.718-2.148-.47-.925-1.422-1.847-2.313-2.239-.556-.244-1.221-.363-2.008-.359z" opacity=".2"/><path d="M32.362 14c-.216 0-.175.84.05 1.031.255.215.629.966.739 1.485l.086.406-.7.148c-1.666.353-1.989 1.502-.914 3.242.378.612.379.629.305 1.954-.055.993-.025 1.496.113 1.972.216.74.817 1.418 1.446 1.633.695.238 2.583.126 3.285-.195.768-.351 1.768-1.394 2.047-2.137.328-.875.203-2.082-.32-3.137-.504-1.013-1.815-2.392-2.727-2.863-.482-.249-.71-.46-.871-.816-.23-.508-2.296-2.723-2.54-2.723zm-11.95 4a.094.094 0 0 0-.078.031c-.25.25-.452 1.566-.43 2.793.022 1.162-.008 1.402-.238 1.79-.763 1.286-.893 3.642-.273 4.98.548 1.182 1.456 1.904 2.84 2.25.966.241 1.618.207 2.527-.125 2.504-.916 2.938-2.702 1.14-4.715-.728-.816-1.066-1.482-1.066-2.086 0-.735-.27-1.454-.722-1.938-.408-.435-.431-.44-1.211-.37-.438.038-.953.108-1.145.156-.318.08-.368.036-.597-.473a3.382 3.382 0 0 1-.254-1.148c-.003-.504-.291-1.127-.492-1.145zm25.415 2.004c-.316-.062-.413.669-.16 1.2.116.244.193.659.171.921l-.039.477-.672.011c-.52.01-.772.094-1.136.371-.427.325-1.08 1.426-1.082 1.829-.001.089-.398.954-.883 1.921-.485.968-.922 1.954-.973 2.188-.274 1.257.486 2.197 2.305 2.852.768.276 1.57.298 2.441.066 1.415-.377 2.325-1.09 2.875-2.258.29-.616.33-.865.324-1.984-.007-1.45-.281-2.366-1.023-3.41-.231-.326-.515-.962-.629-1.41-.234-.92-1.218-2.714-1.52-2.774zm-32.668 10c-.033-.008-.057-.003-.075.016-.26.28.132 3.003.528 3.652.097.16.234.704.308 1.207.339 2.283 1.931 4.415 3.739 5.008.617.202 1.957.127 2.824-.157.716-.234.956-.396 1.496-1.003 1.121-1.262 1.326-2.51.574-3.52-.199-.267-.808-.766-1.351-1.11a61.594 61.594 0 0 1-2.102-1.406c-1.79-1.26-1.98-1.376-2.473-1.523-.626-.187-1.264.012-1.785.555l-.41.422-.254-.45c-.141-.249-.257-.578-.258-.73 0-.273-.534-.908-.761-.961zM36.006 32c-.786.004-1.694.13-2.742.383-2.96.714-4.36 1.565-4.996 3.035-.276.636-.298.856-.223 2.074.077 1.239.056 1.417-.234 2.035-.295.629-.636.983-2.2 2.297-.496.418-.541.515-.597 1.281-.052.714 0 .948.36 1.711.767 1.63 2.152 2.723 3.886 3.063.821.16 1.364.16 2.774.004 5.48-.61 11.778-2.585 13.578-4.258.94-.874 1.316-1.68 1.379-2.96.12-2.445-.981-3.91-2.946-3.919-1.538-.006-3.084-.9-3.718-2.148-.47-.925-1.422-1.847-2.313-2.239-.556-.244-1.221-.363-2.008-.359z" fill="#313131"/><path d="M32 4A28 28 0 0 0 4 32a28 28 0 0 0 .021.406A28 28 0 0 1 32 5a28 28 0 0 1 27.979 27.578A28 28 0 0 0 60 32 28 28 0 0 0 32 4z" opacity=".2" fill="#fff"/></symbol><use xlink:href="#sprite-logo-lazarus" x="0" y="1151.598" width="64" height="64"/><view id="sprite-logo-lazarus-fragment" viewBox="0 1151.598 64 64"/><symbol id="sprite-logo-postgresql" viewBox="0 0 128 128"><title>sprite-logo-postgresql</title><path d="M93.809 92.112c.785-6.533.55-7.492 5.416-6.433l1.235.108c3.742.17 8.637-.602 11.513-1.938 6.191-2.873 9.861-7.668 3.758-6.409-13.924 2.873-14.881-1.842-14.881-1.842 14.703-21.815 20.849-49.508 15.543-56.287-14.47-18.489-39.517-9.746-39.936-9.52l-.134.025c-2.751-.571-5.83-.912-9.289-.968-6.301-.104-11.082 1.652-14.709 4.402 0 0-44.683-18.409-42.604 23.151.442 8.841 12.672 66.898 27.26 49.362 5.332-6.412 10.484-11.834 10.484-11.834 2.558 1.699 5.622 2.567 8.834 2.255l.249-.212c-.078.796-.044 1.575.099 2.497-3.757 4.199-2.653 4.936-10.166 6.482-7.602 1.566-3.136 4.355-.221 5.084 3.535.884 11.712 2.136 17.238-5.598l-.22.882c1.474 1.18 1.375 8.477 1.583 13.69.209 5.214.558 10.079 1.621 12.948 1.063 2.868 2.317 10.256 12.191 8.14 8.252-1.764 14.561-4.309 15.136-27.985"/><path d="M75.458 125.256c-4.367 0-7.211-1.689-8.938-3.32-2.607-2.46-3.641-5.629-4.259-7.522l-.267-.79c-1.244-3.358-1.666-8.193-1.916-14.419-.038-.935-.064-1.898-.093-2.919-.021-.747-.047-1.684-.085-2.664-1.553.742-3.213 1.27-4.962 1.568-3.079.526-6.389.356-9.84-.507-2.435-.609-4.965-1.871-6.407-3.82-4.203 3.681-8.212 3.182-10.396 2.453-3.853-1.285-7.301-4.896-10.542-11.037-2.309-4.375-4.542-10.075-6.638-16.943-3.65-11.96-5.969-24.557-6.175-28.693-.648-12.945 2.837-22.203 10.356-27.514 11.861-8.378 29.832-3.451 36.384-1.214 4.402-2.653 9.581-3.944 15.433-3.851 3.143.051 6.136.327 8.916.823 2.9-.912 8.628-2.221 15.185-2.139 12.081.144 22.092 4.852 28.949 13.615 4.894 6.252 2.474 19.381.597 26.651-2.642 10.226-7.271 21.102-12.957 30.57 1.544.011 3.781-.174 6.961-.831 6.274-1.295 8.109 2.069 8.607 3.575 1.995 6.042-6.677 10.608-9.382 11.864-3.466 1.609-9.117 2.589-13.745 2.377l-.202-.013-1.216-.107-.12 1.014-.116.991c-.311 11.999-2.025 19.598-5.552 24.619-3.697 5.264-8.835 6.739-13.361 7.709-1.544.33-2.947.474-4.219.474zm-9.19-43.671c2.819 2.256 3.066 6.501 3.287 14.434.028.99.054 1.927.089 2.802.106 2.65.355 8.855 1.327 11.477.137.371.26.747.39 1.146 1.083 3.316 1.626 4.979 6.309 3.978 3.931-.843 5.952-1.599 7.534-3.851 2.299-3.274 3.585-9.86 3.821-19.575l4.783.116-4.75-.57.14-1.186c.455-3.91.783-6.734 3.396-8.602 2.097-1.498 4.486-1.353 6.389-1.01-2.091-1.58-2.669-3.433-2.823-4.193l-.399-1.965 1.121-1.663c6.457-9.58 11.781-21.354 14.609-32.304 2.906-11.251 2.02-17.226 1.134-18.356-11.729-14.987-32.068-8.799-34.192-8.097l-.359.194-1.8.335-.922-.191c-2.542-.528-5.366-.82-8.393-.869-4.756-.08-8.593 1.044-11.739 3.431l-2.183 1.655-2.533-1.043c-5.412-2.213-21.308-6.662-29.696-.721-4.656 3.298-6.777 9.76-6.305 19.207.156 3.119 2.275 14.926 5.771 26.377 4.831 15.825 9.221 21.082 11.054 21.693.32.108 1.15-.537 1.976-1.529 5.37-6.459 10.479-11.844 10.694-12.07l2.77-2.915 3.349 2.225c1.35.897 2.839 1.406 4.368 1.502l7.987-6.812-1.157 11.808c-.026.265-.039.626.065 1.296l.348 2.238-1.51 1.688-.174.196 4.388 2.025 1.836-2.301z"/><path fill="#336791" d="M115.731 77.44c-13.925 2.873-14.882-1.842-14.882-1.842 14.703-21.816 20.849-49.51 15.545-56.287-14.47-18.488-39.519-9.745-39.937-9.518l-.135.024c-2.751-.571-5.83-.911-9.291-.967-6.301-.103-11.08 1.652-14.707 4.402 0 0-44.684-18.408-42.606 23.151.442 8.842 12.672 66.899 27.26 49.363 5.332-6.412 10.483-11.834 10.483-11.834 2.559 1.699 5.622 2.567 8.833 2.255l.25-.212c-.078.796-.042 1.575.1 2.497-3.758 4.199-2.654 4.936-10.167 6.482-7.602 1.566-3.136 4.355-.22 5.084 3.534.884 11.712 2.136 17.237-5.598l-.221.882c1.473 1.18 2.507 7.672 2.334 13.557-.174 5.885-.29 9.926.871 13.082 1.16 3.156 2.316 10.256 12.192 8.14 8.252-1.768 12.528-6.351 13.124-13.995.422-5.435 1.377-4.631 1.438-9.49l.767-2.3c.884-7.367.14-9.743 5.225-8.638l1.235.108c3.742.17 8.639-.602 11.514-1.938 6.19-2.871 9.861-7.667 3.758-6.408z"/><path fill="#fff" d="M75.957 122.307c-8.232 0-10.84-6.519-11.907-9.185-1.562-3.907-1.899-19.069-1.551-31.503.024-.881.754-1.577 1.64-1.55.881.024 1.575.758 1.55 1.639-.401 14.341.168 27.337 1.324 30.229 1.804 4.509 4.54 8.453 12.275 6.796 7.343-1.575 10.093-4.359 11.318-11.46.94-5.449 2.799-20.951 3.028-24.01.066-.878.828-1.539 1.71-1.472.878.066 1.537.832 1.472 1.71-.239 3.185-2.089 18.657-3.065 24.315-1.446 8.387-5.185 12.191-13.794 14.037-1.463.313-2.792.453-4 .454zM31.321 90.466c-.785 0-1.498-.145-2.116-.35-5.347-1.784-10.44-10.492-15.138-25.885-3.576-11.717-5.842-23.947-6.041-27.922-.589-11.784 2.445-20.121 9.02-24.778 13.007-9.216 34.888-.44 35.813-.062.815.333 1.207 1.265.873 2.081-.333.815-1.265 1.206-2.08.874-.211-.086-21.193-8.492-32.768-.285-5.622 3.986-8.203 11.392-7.672 22.011.167 3.349 2.284 15.285 5.906 27.149 4.194 13.742 8.967 22.413 13.096 23.79.648.216 2.62.873 5.439-2.517 5.305-6.382 10.178-11.476 10.227-11.526.61-.636 1.62-.657 2.256-.047.636.61.658 1.62.048 2.255-.048.05-4.847 5.067-10.077 11.359-2.477 2.979-4.851 3.853-6.786 3.853zM100.75 77.021c-.307 0-.617-.088-.891-.272-.73-.493-.924-1.484-.431-2.215 14.863-22.055 20.08-48.704 15.612-54.414-5.624-7.186-13.565-10.939-23.604-11.156-7.433-.16-13.341 1.738-14.307 2.069l-.243.099c-.971.305-1.716-.227-1.997-.849-.333-.736-.06-1.606.631-2.025.046-.027.192-.089.429-.176l-.021.006.021-.007c1.641-.601 7.639-2.4 15.068-2.315 11.108.118 20.284 4.401 26.534 12.388 2.957 3.779 2.964 12.485.019 23.887-3.002 11.625-8.651 24.118-15.497 34.277-.306.457-.81.703-1.323.703zM101.51 87.231c-2.538 0-4.813-.358-6.175-1.174-1.4-.839-1.667-1.979-1.702-2.584-.382-6.71 3.32-7.878 5.208-8.411-.263-.398-.637-.866-1.024-1.349-1.101-1.376-2.609-3.26-3.771-6.078-.182-.44-.752-1.463-1.412-2.648-3.579-6.418-11.026-19.773-6.242-26.612 2.214-3.165 6.623-4.411 13.119-3.716-1.911-5.822-11.011-24.034-32.604-24.388-6.494-.108-11.82 1.889-15.822 5.93-8.96 9.049-8.636 25.422-8.631 25.586.023.881-.672 1.614-1.553 1.637-.881.028-1.613-.672-1.637-1.553-.02-.727-.354-17.909 9.554-27.916 4.637-4.683 10.741-6.995 18.142-6.874 13.814.227 22.706 7.25 27.732 13.101 5.479 6.377 8.165 13.411 8.386 15.759.165 1.746-1.088 2.095-1.341 2.147l-.576.013c-6.375-1.021-10.465-.312-12.156 2.104-3.639 5.201 3.406 17.834 6.414 23.229.768 1.376 1.322 2.371 1.576 2.985.988 2.396 2.277 4.006 3.312 5.3.911 1.138 1.7 2.125 1.982 3.283.131.23 1.99 2.98 13.021.703 2.765-.57 4.423-.083 4.93 1.45.997 3.015-4.597 6.532-7.694 7.97-2.775 1.29-7.204 2.106-11.036 2.106zm-4.696-4.021c.35.353 2.101.962 5.727.806 3.224-.138 6.624-.839 8.664-1.786 2.609-1.212 4.351-2.567 5.253-3.492l-.5.092c-7.053 1.456-12.042 1.262-14.828-.577-.199-.131-.378-.267-.54-.401-.302.119-.581.197-.78.253-1.58.443-3.214.902-2.996 5.105zM51.252 92.125c-1.752 0-3.596-.239-5.479-.71-1.951-.488-5.24-1.957-5.19-4.37.057-2.707 3.994-3.519 5.476-3.824 5.354-1.103 5.703-1.545 7.376-3.67.488-.619 1.095-1.39 1.923-2.314 1.229-1.376 2.572-2.073 3.992-2.073.989 0 1.8.335 2.336.558 1.708.708 3.133 2.42 3.719 4.467.529 1.847.276 3.625-.71 5.006-3.237 4.533-7.886 6.93-13.443 6.93zm-7.222-4.943c.481.372 1.445.869 2.518 1.137 1.631.408 3.213.615 4.705.615 4.546 0 8.196-1.882 10.847-5.594.553-.774.387-1.757.239-2.274-.31-1.083-1.08-2.068-1.873-2.397-.43-.178-.787-.314-1.115-.314-.176 0-.712 0-1.614 1.009-.762.851-1.311 1.548-1.794 2.162-2.084 2.646-3.039 3.544-9.239 4.821-1.513.31-2.289.626-2.674.835zM56.299 79.822c-.774 0-1.454-.565-1.575-1.354-.04-.265-.066-.531-.08-.799-4.064-.076-7.985-1.82-10.962-4.926-3.764-3.927-5.477-9.368-4.699-14.927.845-6.037.529-11.366.359-14.229-.047-.796-.081-1.371-.079-1.769.003-.505.013-1.844 4.489-4.113 1.592-.807 4.784-2.215 8.271-2.576 5.777-.597 9.585 1.976 10.725 7.246 3.077 14.228.244 20.521-1.825 25.117-.385.856-.749 1.664-1.04 2.447l-.257.69c-1.093 2.931-2.038 5.463-1.748 7.354.134.871-.464 1.685-1.335 1.819l-.244.02zm-13.835-37.562l.062 1.139c.176 2.974.504 8.508-.384 14.86-.641 4.585.759 9.06 3.843 12.276 2.437 2.542 5.644 3.945 8.94 3.945h.068c.369-1.555.982-3.197 1.642-4.966l.255-.686c.329-.884.714-1.74 1.122-2.646 1.991-4.424 4.47-9.931 1.615-23.132-.565-2.615-1.936-4.128-4.189-4.627-4.628-1.022-11.525 2.459-12.974 3.837zM52.094 41.583c-.08.564 1.033 2.07 2.485 2.271 1.449.203 2.689-.975 2.768-1.539.079-.564-1.033-1.186-2.485-1.388-1.451-.202-2.691.092-2.768.656zM54.912 44.409l-.407-.028c-.9-.125-1.81-.692-2.433-1.518-.219-.29-.576-.852-.505-1.354.101-.736.999-1.177 2.4-1.177.313 0 .639.023.967.069.766.106 1.477.327 2.002.62.91.508.977 1.075.936 1.368-.112.813-1.405 2.02-2.96 2.02zm-2.289-2.732c.045.348.907 1.496 2.029 1.651l.261.018c1.036 0 1.81-.815 1.901-1.082-.096-.182-.762-.634-2.025-.81-.28-.04-.556-.059-.821-.059-.812 0-1.243.183-1.345.282zM96.228 40.432c.079.564-1.033 2.07-2.484 2.272-1.45.202-2.691-.975-2.771-1.539-.076-.564 1.036-1.187 2.486-1.388 1.45-.203 2.689.092 2.769.655zM93.409 42.992c-1.396 0-2.601-1.086-2.7-1.791-.115-.846 1.278-1.489 2.712-1.688.316-.044.629-.066.93-.066 1.238 0 2.058.363 2.14.949.053.379-.238.964-.739 1.492-.331.347-1.026.948-1.973 1.079l-.37.025zm.943-3.013c-.276 0-.564.021-.856.061-1.441.201-2.301.779-2.259 1.089.048.341.968 1.332 2.173 1.332l.297-.021c.787-.109 1.378-.623 1.66-.919.443-.465.619-.903.598-1.052-.028-.198-.56-.49-1.613-.49zM98.317 72.822c-.305 0-.613-.088-.886-.27-.732-.49-.929-1.481-.438-2.213 3.398-5.075 2.776-10.25 2.175-15.255-.257-2.132-.521-4.337-.453-6.453.07-2.177.347-3.973.614-5.71.317-2.058.617-4.002.493-6.31-.048-.88.627-1.631 1.507-1.679.883-.047 1.632.627 1.679 1.507.142 2.638-.197 4.838-.525 6.967-.253 1.643-.515 3.342-.578 5.327-.061 1.874.178 3.864.431 5.97.64 5.322 1.365 11.354-2.691 17.411-.308.459-.813.708-1.328.708z"/><path stroke="#fff" stroke-width="3" stroke-linecap="round" stroke-linejoin="round" d="M4.335 19.029" fill="none"/></symbol><use xlink:href="#sprite-logo-postgresql" x="0" y="1215.598" width="128" height="128"/><view id="sprite-logo-postgresql-fragment" viewBox="0 1215.598 128 128"/><symbol style="enable-background:new 0 0 144 144" id="sprite-logo-rust" viewBox="19 19 106 106"><title>Rust programming language logo</title><metadata><rdf:RDF xmlns:rdf="http://www.w3.org/1999/02/22-rdf-syntax-ns#"><cc:Work rdf:about="" xmlns:cc="http://creativecommons.org/ns#"><dc:format xmlns:dc="http://purl.org/dc/elements/1.1/">image/svg+xml</dc:format><dc:type rdf:resource="http://purl.org/dc/dcmitype/StillImage"/><dc:title/></cc:Work></rdf:RDF></metadata><path d="m124 70.7-4.39-2.72c-0.037-0.428-0.079-0.855-0.125-1.28l3.78-3.52c0.384-0.358 0.556-0.888 0.452-1.4-0.101-0.515-0.462-0.939-0.953-1.12l-4.83-1.8c-0.121-0.418-0.248-0.833-0.378-1.25l3.01-4.18c0.307-0.425 0.37-0.978 0.17-1.46-0.2-0.483-0.637-0.829-1.15-0.914l-5.09-0.828c-0.198-0.386-0.404-0.766-0.612-1.14l2.14-4.7c0.219-0.478 0.174-1.03-0.118-1.47-0.291-0.436-0.784-0.691-1.31-0.671l-5.17 0.18c-0.267-0.334-0.539-0.665-0.816-0.99l1.19-5.03c0.12-0.511-0.031-1.05-0.403-1.42-0.369-0.37-0.905-0.523-1.42-0.403l-5.03 1.19c-0.326-0.276-0.657-0.549-0.992-0.816l0.181-5.17c0.02-0.523-0.235-1.02-0.671-1.31-0.437-0.292-0.99-0.336-1.47-0.119l-4.69 2.14c-0.379-0.208-0.759-0.414-1.14-0.613l-0.83-5.09c-0.084-0.516-0.43-0.954-0.914-1.15-0.483-0.201-1.04-0.136-1.46 0.17l-4.18 3.01c-0.412-0.131-0.826-0.257-1.24-0.377l-1.8-4.83c-0.183-0.492-0.607-0.853-1.12-0.955-0.514-0.101-1.04 0.07-1.4 0.452l-3.52 3.78c-0.425-0.047-0.853-0.09-1.28-0.125l-2.72-4.4c-0.275-0.445-0.762-0.716-1.29-0.716s-1.01 0.271-1.28 0.716l-2.72 4.4c-0.428 0.035-0.856 0.078-1.28 0.125l-3.52-3.78c-0.357-0.382-0.887-0.553-1.4-0.452-0.515 0.103-0.939 0.463-1.12 0.955l-1.8 4.83c-0.418 0.12-0.832 0.247-1.24 0.377l-4.18-3.01c-0.425-0.307-0.979-0.372-1.46-0.17-0.483 0.2-0.83 0.638-0.914 1.15l-0.83 5.09c-0.384 0.199-0.764 0.404-1.14 0.613l-4.69-2.14c-0.477-0.218-1.03-0.173-1.47 0.119-0.436 0.29-0.691 0.787-0.671 1.31l0.18 5.17c-0.334 0.267-0.665 0.54-0.992 0.816l-5.03-1.19c-0.511-0.119-1.05 0.033-1.42 0.403-0.372 0.371-0.523 0.906-0.403 1.42l1.18 5.03c-0.275 0.326-0.547 0.656-0.814 0.99l-5.17-0.18c-0.521-0.015-1.02 0.235-1.31 0.671-0.292 0.434-0.336 0.99-0.119 1.47l2.14 4.7c-0.208 0.377-0.414 0.757-0.613 1.14l-5.09 0.828c-0.517 0.084-0.953 0.43-1.15 0.914-0.2 0.485-0.135 1.04 0.17 1.46l3.01 4.18c-0.131 0.413-0.258 0.828-0.378 1.25l-4.83 1.8c-0.49 0.183-0.851 0.607-0.953 1.12-0.102 0.514 0.069 1.04 0.452 1.4l3.78 3.52c-0.047 0.425-0.089 0.853-0.125 1.28l-4.39 2.72c-0.445 0.275-0.716 0.761-0.716 1.29s0.271 1.01 0.716 1.28l4.39 2.72c0.036 0.428 0.078 0.855 0.125 1.28l-3.78 3.52c-0.383 0.357-0.554 0.887-0.452 1.4 0.102 0.515 0.463 0.938 0.953 1.12l4.83 1.8c0.12 0.418 0.247 0.833 0.378 1.25l-3.01 4.18c-0.306 0.426-0.371 0.979-0.17 1.46 0.201 0.485 0.638 0.831 1.16 0.914l5.09 0.828c0.199 0.386 0.403 0.766 0.613 1.14l-2.14 4.69c-0.218 0.477-0.173 1.03 0.119 1.47 0.292 0.437 0.789 0.692 1.31 0.671l5.16-0.181c0.269 0.336 0.54 0.665 0.816 0.992l-1.18 5.03c-0.12 0.51 0.031 1.04 0.403 1.41 0.369 0.373 0.906 0.522 1.42 0.402l5.03-1.18c0.327 0.278 0.658 0.548 0.992 0.814l-0.18 5.17c-0.02 0.523 0.235 1.02 0.671 1.31 0.434 0.291 0.99 0.335 1.47 0.117l4.69-2.14c0.378 0.21 0.758 0.414 1.14 0.613l0.83 5.09c0.084 0.518 0.43 0.956 0.914 1.16 0.483 0.201 1.04 0.136 1.46-0.169l4.18-3.01c0.413 0.131 0.828 0.259 1.25 0.379l1.8 4.83c0.183 0.49 0.607 0.853 1.12 0.953 0.514 0.104 1.04-0.068 1.4-0.452l3.52-3.78c0.425 0.049 0.853 0.09 1.28 0.128l2.72 4.39c0.274 0.443 0.761 0.716 1.28 0.716s1.01-0.272 1.29-0.716l2.72-4.39c0.428-0.038 0.855-0.079 1.28-0.128l3.52 3.78c0.357 0.384 0.887 0.556 1.4 0.452 0.515-0.101 0.939-0.463 1.12-0.953l1.8-4.83c0.418-0.12 0.833-0.248 1.25-0.379l4.18 3.01c0.425 0.305 0.979 0.37 1.46 0.169 0.484-0.199 0.83-0.638 0.914-1.16l0.83-5.09c0.384-0.199 0.764-0.406 1.14-0.613l4.69 2.14c0.477 0.218 1.03 0.174 1.47-0.117 0.436-0.292 0.69-0.787 0.671-1.31l-0.18-5.17c0.334-0.267 0.665-0.536 0.991-0.814l5.03 1.18c0.511 0.12 1.05-0.029 1.42-0.402 0.372-0.371 0.523-0.904 0.403-1.41l-1.18-5.03c0.276-0.327 0.548-0.656 0.814-0.992l5.17 0.181c0.521 0.021 1.02-0.234 1.31-0.671 0.292-0.436 0.337-0.991 0.118-1.47l-2.14-4.69c0.209-0.379 0.414-0.759 0.612-1.14l5.09-0.828c0.518-0.083 0.954-0.429 1.15-0.914 0.2-0.483 0.137-1.04-0.17-1.46l-3.01-4.18c0.13-0.413 0.257-0.828 0.378-1.25l4.83-1.8c0.491-0.184 0.853-0.607 0.953-1.12 0.104-0.514-0.068-1.04-0.452-1.4l-3.78-3.52c0.046-0.425 0.088-0.853 0.125-1.28l4.39-2.72c0.445-0.274 0.716-0.761 0.716-1.28s-0.27-1.01-0.715-1.29zm-29.4 36.5c-1.68-0.362-2.74-2.02-2.38-3.7 0.359-1.68 2.01-2.75 3.69-2.39 1.68 0.359 2.75 2.02 2.39 3.7s-2.01 2.75-3.69 2.39zm-1.49-10.1c-1.53-0.328-3.04 0.646-3.36 2.18l-1.56 7.28c-4.81 2.18-10.2 3.4-15.8 3.4-5.76 0-11.2-1.27-16.1-3.55l-1.56-7.28c-0.328-1.53-1.83-2.51-3.36-2.18l-6.43 1.38c-1.19-1.23-2.3-2.54-3.32-3.92h31.3c0.354 0 0.59-0.064 0.59-0.386v-11.1c0-0.322-0.236-0.386-0.59-0.386h-9.15v-7.01h9.89c0.903 0 4.83 0.258 6.08 5.28 0.393 1.54 1.26 6.56 1.85 8.17 0.588 1.8 2.98 5.4 5.53 5.4h15.6c0.177 0 0.366-0.02 0.565-0.056-1.08 1.47-2.27 2.86-3.54 4.16l-6.58-1.41zm-43.3 9.95c-1.68 0.362-3.33-0.708-3.69-2.39-0.359-1.68 0.708-3.34 2.39-3.7 1.68-0.359 3.33 0.711 3.69 2.39 0.359 1.68-0.709 3.34-2.39 3.7zm-11.9-48.1c0.696 1.57-0.012 3.41-1.58 4.11-1.57 0.697-3.4-0.012-4.1-1.58s0.012-3.41 1.58-4.11c1.57-0.696 3.4 0.012 4.1 1.58zm-3.65 8.64 6.7-2.98c1.43-0.635 2.08-2.31 1.44-3.74l-1.38-3.12h5.42v24.4h-10.9c-0.949-3.34-1.46-6.86-1.46-10.5 0-1.39 0.075-2.76 0.219-4.11zm29.4-2.37v-7.2h12.9c0.667 0 4.71 0.771 4.71 3.79 0 2.51-3.1 3.41-5.65 3.41h-12zm46.9 6.48c0 0.956-0.035 1.9-0.105 2.84h-3.93c-0.393 0-0.551 0.258-0.551 0.643v1.8c0 4.24-2.39 5.17-4.49 5.4-2 0.225-4.21-0.836-4.48-2.06-1.18-6.63-3.14-8.04-6.24-10.5 3.85-2.44 7.85-6.05 7.85-10.9 0-5.21-3.57-8.49-6-10.1-3.42-2.25-7.2-2.7-8.22-2.7h-40.6c5.51-6.14 13-10.5 21.4-12.1l4.79 5.02c1.08 1.13 2.87 1.18 4.01 0.092l5.36-5.12c11.2 2.09 20.7 9.07 26.2 18.7l-3.67 8.28c-0.633 1.43 0.013 3.11 1.44 3.74l7.06 3.14c0.122 1.25 0.186 2.52 0.186 3.8zm-40.6-41.9c1.24-1.19 3.21-1.14 4.39 0.101 1.18 1.24 1.14 3.21-0.103 4.4-1.24 1.19-3.21 1.14-4.39-0.102-1.18-1.24-1.14-3.21 0.103-4.4zm36.4 29.3c0.695-1.57 2.53-2.28 4.1-1.58 1.57 0.696 2.28 2.54 1.58 4.11-0.695 1.57-2.53 2.28-4.1 1.58-1.57-0.696-2.28-2.54-1.58-4.11z"/></symbol><use style="enable-background:new 0 0 144 144" xlink:href="#sprite-logo-rust" x="0" y="1343.598" width="144" height="144"/><view style="enable-background:new 0 0 144 144" id="sprite-logo-rust-fragment" viewBox="0 1343.598 144 144"/></svg>