<svg width="354" height="354" viewBox="0 0 354 354" fill="none" xmlns="http://www.w3.org/2000/svg">
    <g clip-path="url(#clip0_1470_5614)">
        <rect width="354" height="354" fill="#121900"/>
        <path fill-rule="evenodd" clip-rule="evenodd" d="M753.968 54.2586C727.833 39.1693 685.466 39.1651 659.34 54.2492L627.409 72.6847C600.63 88.1456 557.205 88.1413 530.416 72.6751L498.474 54.2332C472.339 39.1439 429.972 39.1397 403.846 54.2238L371.914 72.6593C345.135 88.1202 301.71 88.1159 274.922 72.6496L242.98 54.2077C219.072 40.4046 181.582 39.2245 155.366 50.6701C153.46 52.1286 151.356 53.5283 149.055 54.857L117.124 73.2925C114.899 74.577 112.559 75.7548 110.124 76.8258C90.4977 91.9548 92.6033 113.508 116.436 127.268L148.379 145.71C174.514 160.799 216.881 160.803 243.007 145.719L274.938 127.283C301.717 111.822 345.142 111.827 371.931 127.293L403.873 145.735C430.008 160.824 472.375 160.828 498.501 145.744L530.433 127.309C557.212 111.848 600.637 111.852 627.425 127.318L659.367 145.76C685.503 160.85 727.869 160.854 753.996 145.77L785.927 127.334C812.053 112.25 812.046 87.7898 785.911 72.7005L753.968 54.2586ZM154.169 49.9826C151.734 51.0536 149.394 52.2313 147.169 53.5158L115.238 71.9513C112.937 73.28 110.833 74.6797 108.927 76.1382C83.84 87.0909 48.4288 86.482 24.4752 74.3134C23.4267 73.6177 22.3292 72.9381 21.1825 72.2761L-10.7598 53.8342C-11.7876 53.2408 -12.84 52.6701 -13.915 52.1222C-36.7148 36.9432 -35.6266 13.9479 -10.6453 -0.475059L21.286 -18.9106C47.4124 -33.9947 89.779 -33.9905 115.914 -18.9012L147.857 -0.459302C171.69 13.3007 173.795 34.8535 154.169 49.9826ZM158.181 48.3464C184.775 38.3085 220.796 40.0356 244.161 53.5255L276.104 71.9674C302.239 87.0567 344.606 87.0609 370.732 71.9768L402.663 53.5413C429.443 38.0804 472.867 38.0847 499.656 53.5509L531.598 71.9928C557.733 87.0821 600.1 87.0863 626.226 72.0022L658.158 53.5667C684.937 38.1058 728.362 38.1101 755.15 53.5764L787.092 72.0182C811.331 86.0123 813.644 107.87 794.028 123.357C820.852 112.033 858.709 113.369 882.947 127.362L914.889 145.804C941.677 161.271 941.685 186.342 914.906 201.803L882.975 220.238C868.509 228.59 849.187 232.429 830.254 231.756C849.333 232.751 869.008 229.034 883.61 220.603L915.542 202.168C942.321 186.707 985.746 186.711 1012.53 202.178L1044.48 220.619C1071.26 236.086 1071.27 261.157 1044.49 276.618L1012.56 295.053C985.783 310.514 942.358 310.51 915.569 295.044L883.627 276.602C857.491 261.513 815.125 261.508 788.998 276.592L757.067 295.028C732.534 309.192 694.031 310.376 667.148 298.584C683.589 312.115 683.664 330.254 667.37 343.821C690.952 334.574 722.305 334.747 745.606 344.34C729.759 329.122 733.195 309.083 755.918 295.964L787.849 277.528C814.629 262.067 858.053 262.072 884.842 277.538L916.784 295.98C943.572 311.446 943.58 336.517 916.801 351.978L884.869 370.414C860.84 384.287 823.408 385.708 796.619 374.679C812.467 389.898 809.03 409.937 786.307 423.056L754.376 441.492C730.38 455.346 693.017 456.782 666.236 445.803C684.427 461.216 681.687 482.395 658.014 496.063L626.082 514.498C599.303 529.959 555.878 529.955 529.09 514.489L497.148 496.047C473.883 482.615 470.817 461.938 487.955 446.603C461.353 456.677 425.279 454.961 401.889 441.457L369.947 423.015C346.347 409.389 343.532 388.308 361.508 372.912C334.878 383.11 298.624 381.432 275.147 367.877L243.205 349.435C218.727 335.303 216.61 313.151 236.857 297.64C212.834 308.042 179.672 308.148 155.45 297.961C174.991 313.448 172.665 335.266 148.467 349.236L116.536 367.672C89.7567 383.133 46.3317 383.128 19.5435 367.662L-12.3988 349.22C-36.1567 335.504 -38.8501 314.232 -20.4756 298.81C-47.1877 309.419 -84.0312 307.864 -107.789 294.147L-139.731 275.705C-164.474 261.42 -166.37 238.941 -145.414 223.408C-172.317 235.507 -211.252 234.412 -235.995 220.127L-267.937 201.685C-291.593 188.027 -294.365 166.879 -276.249 151.474C-302.932 161.933 -339.562 160.333 -363.219 146.675L-395.161 128.233C-421.949 112.767 -421.957 87.6955 -395.178 72.2346L-363.246 53.7991C-337.12 38.715 -337.127 14.2546 -363.263 -0.834655L-395.205 -19.2765C-421.993 -34.7428 -422.001 -59.8142 -395.222 -75.2751L-363.29 -93.7106C-339.582 -107.398 -302.827 -108.965 -276.12 -98.4118C-294.502 -113.838 -291.821 -135.107 -268.072 -148.819L-236.141 -167.254C-209.362 -182.715 -165.937 -182.711 -139.148 -167.245L-107.206 -148.803C-80.4177 -133.337 -80.4102 -108.265 -107.189 -92.8044L-139.121 -74.3688C-165.247 -59.2847 -165.24 -34.8244 -139.104 -19.7351L-107.162 -1.29317C-82.9043 12.712 -80.6066 34.5933 -100.273 50.0826C-76.4425 39.7924 -43.6504 39.618 -19.5046 49.5579C-38.2926 34.1084 -35.7349 12.6454 -11.8274 -1.15757L20.1038 -19.5931C46.8829 -35.054 90.3079 -35.0497 117.096 -19.5835L149.038 -1.14158C172.326 12.3036 175.375 33.0076 158.181 48.3464ZM-15.1037 52.8035C-41.3895 39.4503 -81.4727 40.0171 -106.57 54.5071L-138.501 72.9426C-142.689 75.3602 -147.283 77.3997 -152.157 79.061C-178.526 88.2517 -213.304 86.2744 -236.069 73.1312L-268.011 54.6893C-294.799 39.2231 -294.807 14.1517 -268.028 -1.3092L-236.097 -19.7447C-209.97 -34.8288 -209.977 -59.2892 -236.113 -74.3785L-268.055 -92.8204C-269.628 -93.7285 -271.109 -94.6698 -272.497 -95.6403C-298.783 -108.051 -337.594 -107.181 -362.108 -93.0281L-394.039 -74.5926C-420.166 -59.5085 -420.159 -35.0481 -394.023 -19.9588L-362.081 -1.51691C-335.293 13.9493 -335.285 39.0207 -362.064 54.4816L-393.996 72.9171C-420.122 88.0012 -420.115 112.462 -393.979 127.551L-362.037 145.993C-337.64 160.079 -299.098 161.019 -272.827 148.812C-271.315 147.733 -269.691 146.69 -267.954 145.687L-236.023 127.251C-209.244 111.79 -165.819 111.795 -139.03 127.261L-107.088 145.703C-80.9526 160.792 -38.586 160.796 -12.4596 145.712L19.4717 127.277C21.2086 126.274 23.0156 125.336 24.8835 124.463C45.0342 110.008 44.5006 89.1179 23.2866 74.9948C22.2116 74.4469 21.1594 73.8763 20.1315 73.2828L-11.8107 54.841C-12.9574 54.1789 -14.0551 53.4992 -15.1037 52.8035ZM28.8763 77.5591C51.8496 87.0163 82.6499 87.3178 106.112 78.4619C90.8199 92.1041 91.5401 109.99 108.27 123.239C84.9173 113.423 53.2605 113.172 29.4941 122.488C45.4105 108.953 45.2037 90.9852 28.8763 77.5591ZM-271.638 149.498C-269.77 148.625 -267.963 147.688 -266.226 146.685L-234.295 128.249C-208.169 113.165 -165.802 113.169 -139.667 128.259L-107.724 146.701C-80.9361 162.167 -37.5111 162.171 -10.7321 146.71L21.1992 128.275C22.9363 127.272 24.5607 126.228 26.0724 125.15C52.3437 112.942 90.885 113.883 115.282 127.968L147.225 146.41C173.36 161.5 173.367 185.96 147.241 201.044L115.31 219.48C88.5305 234.941 88.5379 260.012 115.326 275.478L147.269 293.92C173.404 309.009 173.411 333.47 147.285 348.554L115.354 366.989C89.2272 382.073 46.8606 382.069 20.7252 366.98L-11.2171 348.538C-35.7985 334.346 -37.2666 311.864 -15.6168 296.691C-13.9585 295.898 -12.3497 295.054 -10.7968 294.157L21.1345 275.721C47.9135 260.261 47.906 235.189 21.1177 219.723L20.9096 219.603C20.8337 219.558 20.7575 219.514 20.6811 219.47L-11.2611 201.028C-38.0494 185.562 -81.4744 185.558 -108.253 201.019L-140.185 219.454C-166.311 234.538 -208.678 234.534 -234.813 219.445L-266.755 201.003C-291.153 186.917 -292.782 164.666 -271.638 149.498ZM148.425 201.726C173.508 187.244 213.561 186.67 239.847 200C240.902 200.701 242.007 201.385 243.161 202.051L275.103 220.493C301.891 235.96 345.316 235.964 372.095 220.503L404.027 202.067C405.407 201.271 406.715 200.448 407.953 199.603C434.151 186.749 473.453 187.421 498.297 201.617C498.38 201.665 498.462 201.713 498.546 201.761L530.488 220.203C556.623 235.293 556.631 259.753 530.504 274.837L498.573 293.273C498.527 293.299 498.482 293.325 498.437 293.352C472.299 308.356 430.036 308.325 403.946 293.263L372.004 274.821C345.216 259.355 301.791 259.35 275.012 274.811L243.08 293.247C216.954 308.331 174.587 308.327 148.452 293.237L116.51 274.795C90.3742 259.706 90.3669 235.246 116.493 220.162L148.425 201.726ZM491.572 297.997C467.519 308.108 434.644 308.064 410.658 297.865C428.013 311.342 428.626 329.738 412.493 343.556C436.93 334.197 469.471 334.84 492.806 345.483C474.144 331.575 473.731 312.143 491.572 297.997ZM662.542 345.899C660.754 346.741 659.023 347.644 657.356 348.606L625.425 367.042C612.525 374.489 595.666 378.259 578.756 378.35C561.724 378.308 544.711 374.535 531.714 367.031L499.771 348.589C473.682 333.526 473.629 309.124 499.619 294.034C499.665 294.008 499.711 293.981 499.757 293.955L531.688 275.519C558.467 260.058 558.46 234.987 531.671 219.521L499.729 201.079C499.646 201.031 499.562 200.983 499.479 200.935C473.592 185.834 473.668 161.482 499.711 146.445L531.642 128.01C557.769 112.926 600.135 112.93 626.271 128.019L658.213 146.461C685.001 161.927 728.426 161.932 755.205 146.471L787.137 128.035C813.263 112.951 855.63 112.955 881.765 128.045L913.707 146.487C939.843 161.576 939.85 186.036 913.724 201.12L881.792 219.556C855.805 234.56 813.751 234.635 787.583 219.787L757.039 202.152C756.898 202.071 756.757 201.99 756.615 201.909L755.222 201.105C728.433 185.638 685.008 185.634 658.229 201.095L626.298 219.531C599.519 234.991 599.527 260.063 626.315 275.529L658.257 293.971C682.882 308.188 684.312 330.724 662.542 345.899ZM712.769 190.625C693.69 189.629 674.014 193.347 659.412 201.777L627.48 220.213C612.844 228.663 606.409 240.057 608.176 251.096C606.969 240.14 613.615 228.95 628.116 220.578L660.047 202.142C674.513 193.791 693.835 189.952 712.769 190.625ZM491.539 197.033C474.063 183.178 474.086 164.258 491.61 150.423C467.429 160.631 434.282 160.551 410.228 150.185C428.146 163.83 428.714 182.645 411.929 196.611C435.785 186.959 467.913 187.1 491.539 197.033ZM406.764 198.92C428.897 183.744 427.584 161.044 402.828 146.751L370.886 128.309C344.75 113.22 302.384 113.216 276.257 128.3L244.326 146.735C219.352 161.154 218.257 184.14 241.036 199.319C242.126 199.874 243.193 200.452 244.235 201.053L276.177 219.495C302.313 234.584 344.679 234.589 370.806 219.505L402.737 201.069C404.041 200.316 405.385 199.6 406.764 198.92ZM235.464 196.766C211.557 186.934 179.184 187.012 155.423 197.003C172.873 183.167 172.862 164.274 155.391 150.439C179.787 160.694 213.245 160.51 237.303 149.885C218.952 163.604 218.34 182.683 235.464 196.766ZM578.761 379.315C560.994 379.41 543.173 375.542 529.614 367.714L497.672 349.272C473.532 335.335 435.545 334.268 409.298 346.072C407.687 347.241 405.944 348.37 404.071 349.451L372.139 367.887C370.144 369.039 368.056 370.105 365.889 371.086C345.122 386.247 346.87 408.326 371.129 422.332L403.071 440.774C427.004 454.592 464.547 455.76 490.767 444.276C492.687 442.803 494.808 441.389 497.131 440.048L529.062 421.613C555.841 406.152 599.266 406.156 626.055 421.622L657.997 440.064C659.542 440.956 660.998 441.88 662.364 442.832C688.657 455.856 728.298 455.182 753.194 440.809L785.125 422.374C808.444 408.91 810.944 387.977 792.628 372.905C790.994 372.122 789.409 371.288 787.877 370.404L755.935 351.962C753.112 350.333 750.587 348.596 748.359 346.776C723.851 335.109 688.337 335.046 663.724 346.588C662.386 347.516 660.963 348.417 659.456 349.287L627.524 367.723C614.066 375.493 596.403 379.357 578.761 379.315ZM408.112 345.382C428.879 330.221 427.131 308.141 402.872 294.135L370.93 275.693C344.794 260.604 302.428 260.6 276.301 275.684L244.37 294.119C218.244 309.203 218.251 333.664 244.387 348.753L276.329 367.195C300.469 381.132 338.456 382.2 364.703 370.396C366.314 369.226 368.057 368.098 369.93 367.016L401.862 348.581C403.857 347.428 405.945 346.362 408.112 345.382ZM-153.014 78.2318C-148.469 76.6474 -144.181 74.7229 -140.259 72.4584L-108.327 54.0229C-82.201 38.9388 -82.2083 14.4784 -108.344 -0.610905L-140.286 -19.0528C-167.074 -34.519 -167.082 -59.5904 -140.303 -75.0513L-108.371 -93.4869C-82.245 -108.571 -82.2523 -133.031 -108.388 -148.121L-140.33 -166.563C-166.465 -181.652 -208.832 -181.656 -234.958 -166.572L-266.89 -148.136C-291.443 -133.961 -292.915 -111.504 -271.311 -96.3267C-269.585 -95.5075 -267.911 -94.6323 -266.298 -93.7009L-234.356 -75.2591C-207.567 -59.7928 -207.56 -34.7214 -234.339 -19.2605L-266.27 -0.82498C-292.397 14.2591 -292.389 38.7195 -266.254 53.8088L-234.312 72.2507C-212.265 84.9793 -178.669 86.9736 -153.014 78.2318ZM19.7251 220.283L-12.0063 201.963C-38.1417 186.874 -80.5083 186.87 -106.635 201.954L-138.566 220.389C-164.692 235.474 -164.685 259.934 -138.55 275.023L-106.607 293.465C-82.0259 307.657 -43.0859 308.505 -16.8044 296.005C-15.4316 295.047 -13.9686 294.118 -12.4155 293.222L19.5158 274.786C45.5668 259.746 45.6346 235.383 19.7251 220.283ZM491.965 444.963C472.395 460.09 474.518 481.617 498.33 495.365L530.272 513.806C556.407 528.896 598.774 528.9 624.9 513.816L656.832 495.38C681.417 481.186 682.861 458.688 661.167 443.51C659.873 442.867 658.611 442.191 657.384 441.482L625.441 423.04C599.306 407.951 556.939 407.947 530.813 423.031L498.882 441.466C496.682 442.736 494.37 443.901 491.965 444.963ZM793.867 372.244C820.156 384.759 859.108 383.922 883.687 369.731L915.619 351.296C941.745 336.212 941.738 311.751 915.602 296.662L883.66 278.22C857.525 263.131 815.158 263.127 789.032 278.211L757.1 296.646C733.781 310.11 731.281 331.043 749.597 346.115C751.231 346.898 752.817 347.732 754.348 348.616L786.29 367.058C789.113 368.687 791.638 370.424 793.867 372.244ZM755.438 202.594L785.982 220.229C786.123 220.31 786.265 220.391 786.407 220.472L787.8 221.276C814.588 236.742 858.013 236.747 884.792 221.286L916.724 202.85C942.85 187.766 985.217 187.77 1011.35 202.86L1043.29 221.302C1069.43 236.391 1069.44 260.851 1043.31 275.935L1011.38 294.371C985.253 309.455 942.886 309.451 916.751 294.362L884.809 275.92C858.02 260.453 814.595 260.449 787.816 275.91L755.885 294.345C729.759 309.43 687.392 309.425 661.257 294.336L629.314 275.894C603.179 260.805 603.172 236.345 629.298 221.26L661.229 202.825C687.217 187.821 729.271 187.745 755.438 202.594Z" fill="url(#paint0_linear_1470_5614)"/>
        <path d="M203.125 225.292C203.126 222.876 201.53 220.46 198.337 218.617L190.631 214.167C187.439 212.325 185.843 209.91 185.842 207.494C185.842 205.079 187.438 202.663 190.631 200.819L198.337 196.37C204.721 192.684 215.072 192.684 221.456 196.37L229.163 200.819C235.547 204.505 245.898 204.505 252.282 200.819L259.989 196.37C263.181 194.527 264.777 192.112 264.777 189.697C264.777 187.281 263.181 184.865 259.989 183.022L252.282 178.573C245.898 174.887 235.547 174.887 229.163 178.573L221.456 183.022C215.072 186.708 204.721 186.708 198.337 183.022L190.631 178.573C184.246 174.887 173.895 174.887 167.511 178.573L159.805 183.022C153.42 186.708 143.069 186.708 136.685 183.022L128.979 178.573C122.594 174.887 112.243 174.887 105.859 178.573L98.1527 183.022C94.961 184.865 93.3649 187.28 93.3645 189.695C93.3641 192.111 94.9602 194.527 98.1527 196.37L136.685 218.617C139.877 220.46 141.473 222.875 141.473 225.29C141.474 227.706 139.878 230.122 136.685 231.965L128.979 236.414C125.787 238.257 124.191 240.672 124.19 243.087C124.19 245.503 125.786 247.919 128.979 249.762L136.685 254.212C143.069 257.898 153.42 257.898 159.805 254.212L198.337 231.965C201.529 230.122 203.125 227.707 203.125 225.292Z" fill="#1B3700"/>
        <path d="M229.163 131.113C235.547 127.427 245.898 127.427 252.283 131.113V178.573C245.898 174.887 235.547 174.887 229.163 178.573V131.113Z" fill="#1B3700"/>
        <path d="M167.511 131.113C173.895 127.427 184.246 127.427 190.63 131.113V178.573C184.246 174.887 173.895 174.887 167.511 178.573V131.113Z" fill="#1B3700"/>
        <path d="M105.859 131.113C112.244 127.427 122.595 127.427 128.979 131.113V178.573C122.595 174.887 112.244 174.887 105.859 178.573V131.113Z" fill="#1B3700"/>
        <path d="M252.282 131.113L259.989 135.563V183.022L252.282 178.573V131.113Z" fill="#1B3700"/>
        <path d="M221.456 135.563L229.163 131.113V178.573L221.456 183.022V135.563Z" fill="#1B3700"/>
        <path d="M190.63 131.113L198.336 135.563V183.022L190.63 178.573V131.113Z" fill="#1B3700"/>
        <path d="M159.804 135.563L167.511 131.113V178.573L159.804 183.022V135.563Z" fill="#1B3700"/>
        <path d="M128.979 131.113L136.685 135.563V183.022L128.979 178.573V131.113Z" fill="#1B3700"/>
        <path d="M98.1519 135.563L105.858 131.113V178.573L98.1519 183.022V135.563Z" fill="#1B3700"/>
        <path d="M198.336 135.563C204.721 139.249 215.072 139.249 221.456 135.563V183.022C215.072 186.708 204.721 186.708 198.336 183.022V135.563Z" fill="#1B3700"/>
        <path d="M136.685 135.563C143.069 139.249 153.42 139.249 159.804 135.563V183.022C153.42 186.708 143.069 186.708 136.685 183.022V135.563Z" fill="#1B3700"/>
        <path d="M93.3645 142.236C93.3649 139.821 94.961 137.405 98.1527 135.563V183.022C94.961 184.865 93.3649 187.28 93.3645 189.695V142.236Z" fill="#1B3700"/>
        <path d="M259.988 135.563C263.181 137.406 264.777 139.822 264.776 142.238V189.695C264.776 187.28 263.18 184.865 259.988 183.022V135.563Z" fill="#1B3700"/>
        <path d="M98.1527 148.91C94.961 147.068 93.3649 144.653 93.3645 142.237V189.695C93.3641 192.111 94.9602 194.527 98.1527 196.37V148.91Z" fill="#1B3700"/>
        <path d="M264.776 142.237C264.776 144.652 263.18 147.068 259.988 148.91V196.37C263.18 194.527 264.776 192.112 264.776 189.697V142.237Z" fill="#1B3700"/>
        <path d="M221.456 148.911C215.072 145.225 204.721 145.225 198.336 148.911V196.37C204.721 192.684 215.072 192.684 221.456 196.37V148.911Z" fill="#1B3700"/>
        <path d="M259.989 148.911L252.282 153.36V200.82L259.989 196.37V148.911Z" fill="#1B3700"/>
        <path d="M229.163 153.36L221.456 148.911V196.37L229.163 200.82V153.36Z" fill="#1B3700"/>
        <path d="M198.336 148.911L190.63 153.36V200.82L198.336 196.37V148.911Z" fill="#1B3700"/>
        <path d="M252.283 153.36C245.898 157.046 235.547 157.046 229.163 153.36V200.82C235.547 204.506 245.898 204.506 252.283 200.82V153.36Z" fill="#1B3700"/>
        <path d="M190.63 153.36C187.438 155.203 185.842 157.619 185.842 160.035L185.842 207.493C185.843 205.078 187.439 202.662 190.63 200.82V153.36Z" fill="#1B3700"/>
        <path d="M136.684 171.157L98.1519 148.911V196.37L136.684 218.617V171.157Z" fill="#1B3700"/>
        <path d="M185.842 160.035C185.843 162.45 187.439 164.865 190.63 166.708V214.167C187.439 212.325 185.843 209.91 185.842 207.494V160.035Z" fill="#1B3700"/>
        <path d="M190.63 166.708L198.336 171.157V218.617L190.63 214.168V166.708Z" fill="#1B3700"/>
        <path d="M141.473 177.831C141.473 175.415 139.877 173 136.685 171.157V218.617C139.877 220.46 141.473 222.875 141.473 225.29V177.831Z" fill="#1B3700"/>
        <path d="M198.336 171.157C201.529 173.001 203.125 175.417 203.125 177.832V225.29C203.124 222.875 201.528 220.46 198.336 218.617V171.157Z" fill="#1B3700"/>
        <path d="M136.685 184.505C139.877 182.662 141.473 180.247 141.473 177.832V225.29C141.474 227.706 139.877 230.122 136.685 231.965V184.505Z" fill="#1B3700"/>
        <path d="M203.125 177.832C203.124 180.247 201.528 182.662 198.336 184.505V231.965C201.528 230.122 203.124 227.707 203.125 225.292V177.832Z" fill="#1B3700"/>
        <path d="M128.979 188.955L136.685 184.505V231.965L128.979 236.414V188.955Z" fill="#1B3700"/>
        <path d="M124.19 195.628C124.19 193.213 125.786 190.798 128.978 188.955V236.414C125.786 238.257 124.19 240.672 124.19 243.087V195.628Z" fill="#1B3700"/>
        <path d="M198.337 184.505L159.804 206.752V254.212L198.337 231.965V184.505Z" fill="#1B3700"/>
        <path d="M128.978 202.303C125.786 200.46 124.19 198.045 124.19 195.629L124.19 243.087C124.189 245.503 125.785 247.919 128.978 249.762V202.303Z" fill="#1B3700"/>
        <path d="M136.685 206.752L128.979 202.303V249.762L136.685 254.212V206.752Z" fill="#1B3700"/>
        <path d="M159.804 206.752C153.42 210.438 143.069 210.438 136.685 206.752V254.212C143.069 257.898 153.42 257.898 159.804 254.212V206.752Z" fill="#1B3700"/>
        <path d="M198.337 171.157L190.63 166.708C184.246 163.022 184.246 157.046 190.63 153.36L198.337 148.911C204.721 145.225 215.072 145.225 221.456 148.911L229.163 153.36C235.547 157.046 245.898 157.046 252.282 153.36L259.989 148.911C266.373 145.225 266.373 139.249 259.989 135.563L252.282 131.113C245.898 127.427 235.547 127.427 229.163 131.113L221.456 135.563C215.072 139.249 204.721 139.249 198.337 135.563L190.63 131.113C184.246 127.427 173.895 127.427 167.511 131.113L159.804 135.563C153.42 139.249 143.069 139.249 136.685 135.563L128.979 131.113C122.594 127.427 112.243 127.427 105.859 131.113L98.1526 135.563C91.7683 139.249 91.7684 145.225 98.1526 148.911L136.685 171.157C143.069 174.843 143.069 180.819 136.685 184.505L128.979 188.955C122.594 192.641 122.594 198.617 128.979 202.303L136.685 206.752C143.069 210.438 153.42 210.438 159.804 206.752L198.337 184.505C204.721 180.819 204.721 174.843 198.337 171.157Z" fill="#80FF01"/>
        <g filter="url(#filter0_f_1470_5614)">
            <circle cx="502.5" cy="1011.5" r="976.5" fill="#00A538" fill-opacity="0.3"/>
        </g>
    </g>
    <defs>
        <filter id="filter0_f_1470_5614" x="-1474" y="-965" width="3953" height="3953" filterUnits="userSpaceOnUse" color-interpolation-filters="sRGB">
            <feFlood flood-opacity="0" result="BackgroundImageFix"/>
            <feBlend mode="normal" in="SourceGraphic" in2="BackgroundImageFix" result="shape"/>
            <feGaussianBlur stdDeviation="500" result="effect1_foregroundBlur_1470_5614"/>
        </filter>
        <linearGradient id="paint0_linear_1470_5614" x1="194.706" y1="176.438" x2="501.463" y2="-354.882" gradientUnits="userSpaceOnUse">
            <stop stop-color="#80FF00"/>
            <stop offset="1" stop-opacity="0"/>
        </linearGradient>
        <clipPath id="clip0_1470_5614">
            <rect width="354" height="354" fill="white"/>
        </clipPath>
    </defs>
</svg>
